<svg viewBox="0 0 41 40" fill="none" xmlns="http://www.w3.org/2000/svg" class="h-6 w-6"><path d="M16.2065 15.5386C18.6615 15.5386 21.1278 15.5386 23.5828 15.5386C24.3823 15.5386 25.1369 15.8201 25.8914 16.0003C29.1234 16.7774 32.3442 17.5882 35.5649 18.354C36.2068 18.5116 36.8487 18.6355 37.3442 19.1197C37.8735 19.6265 38.1776 20.2459 38.1888 20.9779C38.2001 23.5455 38.1888 26.1131 38.2001 28.6919C38.2001 28.8496 38.1776 28.9397 37.9861 28.9284C37.806 28.9172 37.6145 28.9735 37.592 28.6807C37.5019 27.746 37.1978 26.8901 36.7474 26.068C34.6415 22.2729 29.3374 21.4734 26.1954 24.4689C24.9679 25.6401 24.2247 27.059 24.0558 28.7483C24.0445 28.9059 23.9769 28.9284 23.8531 28.9284C22.1864 28.9284 20.5197 28.9284 18.8417 28.9284C18.6728 28.9284 18.6503 28.8721 18.6615 28.7145C19.0332 25.0432 17.7043 22.1491 14.6412 20.122C12.7831 18.8945 10.6997 18.5454 8.515 18.8945C8.26724 18.9283 8.21094 18.8832 8.21094 18.6355C8.2222 17.7121 8.23346 16.7886 8.21094 15.8652C8.21094 15.5611 8.32355 15.5273 8.58256 15.5273C11.1276 15.5273 13.6727 15.5273 16.2291 15.5273L16.2065 15.5386ZM21.6571 20.1783C21.6571 20.6288 21.6571 21.0905 21.6571 21.5409C21.6571 21.9576 21.9499 22.2504 22.3102 22.2392C22.6593 22.2392 22.9296 21.9464 22.9296 21.5522C22.9296 20.64 22.9409 19.7279 22.9296 18.8157C22.9296 18.3877 22.6481 18.1062 22.2765 18.1175C21.9161 18.1175 21.6571 18.4103 21.6458 18.8382C21.6458 19.2774 21.6458 19.7279 21.6458 20.167L21.6571 20.1783ZM24.1008 20.1783C24.1008 20.64 24.1008 21.113 24.1008 21.5747C24.1008 21.9689 24.3823 22.2504 24.7314 22.2504C25.0805 22.2504 25.3621 21.9576 25.3621 21.5635C25.3621 20.64 25.3621 19.7166 25.3621 18.7932C25.3621 18.399 25.0693 18.1175 24.7202 18.1175C24.3598 18.1175 24.1008 18.399 24.0895 18.7932C24.0895 19.2436 24.0895 19.7053 24.0895 20.1558L24.1008 20.1783ZM20.4971 20.2008C20.4971 19.7616 20.4971 19.3112 20.4971 18.872C20.4971 18.4328 20.2269 18.1287 19.844 18.14C19.4724 18.14 19.2246 18.4328 19.2246 18.8607C19.2246 19.7504 19.2246 20.64 19.2246 21.5297C19.2246 21.9689 19.4949 22.2729 19.8665 22.2617C20.2269 22.2617 20.4859 21.9576 20.4971 21.5409C20.4971 21.1017 20.4971 20.6513 20.4971 20.2121V20.2008Z" fill="#578BFF"></path><path d="M9.97927 35.009C5.74498 35.009 2.44538 31.6643 2.50169 27.3287C2.55799 23.1732 6.0603 20.02 10.0018 20.0313C13.7518 20.0313 17.4343 22.9818 17.4794 27.6102C17.5132 31.6643 14.0784 35.0202 9.96801 35.009H9.97927ZM9.97927 22.7678C7.37788 22.7678 5.22695 24.9075 5.23821 27.4863C5.23821 30.1328 7.37788 32.2724 10.0018 32.2612C12.6032 32.2612 14.7541 30.1103 14.7541 27.5314C14.7541 24.9075 12.6032 22.7565 9.97927 22.7565V22.7678Z" fill="#578BFF"></path><path d="M30.8242 35.0086C27.671 35.0086 25.216 32.486 25.2836 29.2427C25.3512 26.3485 27.7949 23.9048 30.903 23.9161C33.9324 23.9273 36.3986 26.4611 36.3874 29.558C36.3874 32.531 33.8423 35.0198 30.8129 35.0086H30.8242ZM27.9525 29.4004C27.9751 31.0896 29.2138 32.3509 30.8467 32.3396C32.4233 32.3283 33.7634 30.977 33.7297 29.4454C33.6959 27.8576 32.3895 26.5737 30.8129 26.585C29.2363 26.5963 27.93 27.8801 27.9525 29.4004Z" fill="#578BFF"></path><path d="M23.8325 14.3663C23.7175 14.4864 23.6025 14.4264 23.4876 14.4264C20.3493 14.4264 11.9 14.4264 8.75023 14.4264C8.46284 14.4264 8.35938 14.3463 8.35938 13.7859C8.38237 11.2639 8.37087 8.722 8.35938 6.20007C8.35938 5.73972 8.41685 5.59961 8.69275 5.59961C11.1643 5.59961 18.9468 5.59961 21.4184 5.59961C21.5793 5.59961 21.7058 5.59961 21.7977 5.93987C22.453 8.66195 23.1197 11.384 23.7865 14.1061C23.798 14.1662 23.8095 14.2462 23.8095 14.3263L23.8325 14.3663Z" fill="#3CBF8B"></path><path d="M28.2401 8.93157C28.8707 8.93157 29.5126 8.93157 30.1432 8.93157C30.3685 8.93157 30.4586 8.98788 30.4473 9.22437C30.436 9.85501 30.436 10.4969 30.4473 11.1275C30.4473 11.3528 30.391 11.4316 30.1545 11.4316C29.6815 11.4316 29.6815 11.4316 29.6815 11.9158C29.6815 13.0983 29.6815 14.2695 29.6815 15.4519C29.6815 15.6772 29.6477 15.7673 29.3887 15.6997C28.6455 15.5082 27.9022 15.3168 27.1477 15.1591C26.8662 15.1028 26.8099 14.979 26.8099 14.7087C26.8211 13.7177 26.8099 12.7267 26.8211 11.7357C26.8211 11.4654 26.731 11.3978 26.4833 11.4091C25.999 11.4203 26.0441 11.4767 26.0441 10.9586C26.0441 10.4293 26.0441 9.88879 26.0441 9.3595C26.0441 8.84148 26.0103 8.92031 26.4945 8.92031C27.0689 8.92031 27.6545 8.92031 28.2288 8.92031L28.2401 8.93157Z" fill="#3CBF8B"></path><path d="M10.0013 30.3814C11.5554 30.3814 12.873 29.0638 12.8617 27.5548C12.8392 25.9557 11.5666 24.6719 9.99005 24.6719C8.43597 24.6719 7.11839 25.9895 7.14091 27.5098C7.16343 29.1427 8.41345 30.3927 10.0126 30.3814H10.0013Z" fill="#578BFF"></path></svg>