<svg viewBox="0 0 41 40" fill="none" xmlns="http://www.w3.org/2000/svg" class="_176hfm41o _176hfm456 _1dl1177uk"><path d="M1.2002 13.9652V13.8946C1.36883 13.8299 1.46186 13.677 1.57816 13.5593C3.38076 11.7417 5.18336 9.92401 6.98015 8.10637C7.11389 7.97107 7.24182 7.87695 7.45115 7.87695C11.8995 7.88284 16.3479 7.87695 20.7904 7.87695C20.9648 7.87695 21.0928 7.92989 21.2149 8.05342C23.0931 9.95342 24.9771 11.8534 26.8611 13.7475C27.0065 13.8946 27.0297 13.9711 26.8727 14.1299C25.5935 15.4064 24.32 16.6946 23.0524 17.9887C22.907 18.1417 22.8314 18.1064 22.7035 17.977C22.2848 17.5475 21.8603 17.124 21.4359 16.7064C21.3777 16.6534 21.3428 16.5358 21.2091 16.5887V17.0064C21.2091 21.2593 21.2091 25.5122 21.2149 29.7652C21.2149 30.0711 21.1509 30.1711 20.8253 30.1711C16.3537 30.1593 11.8821 30.1593 7.41626 30.1711C7.079 30.1711 7.03248 30.0534 7.03248 29.7593C7.0383 25.4711 7.0383 21.1828 7.03248 16.8946C7.03248 16.777 7.06737 16.6534 6.96271 16.4887C6.4917 16.977 6.03233 17.4358 5.60203 17.9122C5.41014 18.124 5.30547 18.124 5.10777 17.9122C3.82269 16.5946 2.50854 15.2828 1.2002 13.9652Z" fill="#578BFF"></path><path d="M30.4607 34H24.8203C24.8261 33.8588 24.8436 33.7235 24.8436 33.5824C24.8436 28.6941 24.8436 23.8 24.8436 18.9118C24.8436 18.6706 24.9134 18.5059 25.082 18.3353C26.4485 16.9647 27.7975 15.5765 29.1756 14.2118C29.4024 13.9882 29.3733 13.8765 29.164 13.6765C27.7975 12.3176 26.4485 10.9471 25.0878 9.58824C24.9192 9.42353 24.8436 9.25294 24.8436 9.01177C24.8552 7.80588 24.861 6.6 24.8436 5.39412C24.8319 5.06471 24.9424 5 25.2448 5C29.7513 5.01176 34.252 5.00588 38.7585 5.00588C39.0492 5.00588 39.1946 5.15686 39.1946 5.45882C39.1946 14.8235 39.1946 24.1882 39.1946 33.5471C39.1946 33.7 39.1946 33.8471 39.2004 34H33.56C33.56 33.9059 33.5717 33.8176 33.5658 33.7235C33.4961 32.8 33.4263 31.8765 33.3507 30.9529C33.1821 28.8176 33.0134 26.6824 32.8448 24.5471C32.6471 22.0647 32.4494 19.5824 32.2517 17.1C32.1819 16.2353 32.1121 15.3706 32.0423 14.5059C31.9609 14.9882 31.9261 15.4706 31.8853 15.9529C31.6876 18.4353 31.4899 20.9176 31.2922 23.4C31.1178 25.5706 30.9433 27.7412 30.7747 29.9118C30.67 31.2765 30.5712 32.6353 30.4723 34H30.4607Z" fill="#3CBF8B"></path></svg>