<svg viewBox="0 0 40 40" fill="none" xmlns="http://www.w3.org/2000/svg" class="_176hfm41o _176hfm456 _1dl1177uk"><path d="M37.0003 26.8681C36.9116 27.0232 36.8702 27.2021 36.7519 27.3453C36.4975 27.6554 36.1662 27.7747 35.7757 27.7747C33.2495 27.7747 30.7293 27.7747 28.2031 27.7747C27.4104 27.7747 26.9785 27.3095 26.9785 26.5043C26.9785 25.4247 26.9785 24.3451 26.9785 23.2715C26.9785 22.5259 27.4459 22.0547 28.1795 22.0547C30.6465 22.0547 33.1076 22.0547 35.5746 22.0547C36.4324 22.0547 36.6809 22.2157 37.0003 22.9852V26.8741V26.8681Z" fill="#3CBF8B"></path><path d="M10.798 4.00047C12.7207 3.98854 14.4364 4.38817 16.0751 5.12181C17.2465 5.64073 18.3528 6.27894 19.4 7.01259C19.9265 7.38239 20.3584 7.84763 20.7133 8.38444C21.3109 9.29106 22.0681 10.0068 23.1034 10.3766C23.2987 10.4482 23.4998 10.4899 23.695 10.5496C24.1387 10.6868 24.3162 11.158 24.05 11.5397C23.2632 12.6789 22.4704 13.8182 21.6717 14.9455C21.3759 15.369 21.0446 15.3988 20.6601 15.035C20.1276 14.528 19.5301 14.2297 18.7788 14.3967C18.0274 14.5697 17.3353 14.8858 16.7496 15.4048C16.5898 15.5479 16.4301 15.697 16.2881 15.8521C16.1047 16.0489 15.9036 16.1861 15.6255 16.198C15.4244 16.204 15.3179 16.3591 15.2114 16.5082C13.7975 18.5779 12.3835 20.6417 10.9696 22.7054C10.1591 23.8924 9.34858 25.0793 8.53808 26.2663C8.1062 26.8985 7.78674 27.0059 7.07681 26.7255C6.3373 26.4392 5.75161 25.9442 5.26058 25.3298C4.95294 24.9481 4.93519 24.465 5.21325 24.0474C6.07699 22.7531 6.95849 21.4648 7.83407 20.1764C9.20068 18.1604 10.5732 16.1444 11.9457 14.1343C12.0463 13.9852 12.0759 13.842 12.0108 13.675C11.8807 13.341 11.9339 13.0428 12.1291 12.7446C12.5255 12.1421 12.981 11.5755 13.2887 10.9134C13.7442 9.93523 13.8625 8.94511 13.3656 7.94903C13.0165 7.25117 12.4604 6.74418 11.7978 6.34455C10.6383 5.6467 9.36633 5.45583 8.04113 5.53934C7.88139 5.55126 7.71574 5.57512 7.55601 5.58109C7.23654 5.59302 6.98215 5.41408 6.94074 5.15164C6.89341 4.86534 7.04723 4.65658 7.37853 4.54921C8.52033 4.20327 9.70354 3.98854 10.798 4.00047Z" fill="#578BFF"></path><path d="M19.5593 22.0488C20.8253 22.0488 22.0914 22.0488 23.3574 22.0488C24.0792 22.0488 24.5524 22.5141 24.5524 23.2417C24.5584 24.3571 24.5524 25.4665 24.5524 26.5819C24.5524 27.2619 24.1265 27.7092 23.4521 27.7689C23.3752 27.7748 23.2982 27.7748 23.2213 27.7748C20.7721 27.7748 18.3228 27.7748 15.8795 27.7748C15.6902 27.7748 15.5009 27.7748 15.3234 27.7152C14.856 27.5601 14.5484 27.1485 14.5484 26.6416C14.5425 25.4964 14.5425 24.3452 14.5484 23.2C14.5484 22.526 15.0335 22.0548 15.7079 22.0548C16.9917 22.0548 18.2755 22.0548 19.5593 22.0548V22.0488Z" fill="#3CBF8B"></path><path d="M25.0499 35.9992C23.772 35.9992 22.5 35.9992 21.2222 35.9992C20.5063 35.9992 20.0508 35.54 20.0508 34.8182C20.0508 33.7029 20.0508 32.5875 20.0508 31.4781C20.0508 30.7444 20.5181 30.2852 21.2458 30.2852C23.7897 30.2852 26.3336 30.2852 28.8776 30.2852C29.5875 30.2852 30.0608 30.7444 30.0667 31.4602C30.0726 32.5815 30.0667 33.7029 30.0667 34.8302C30.0667 35.5459 29.5993 36.0052 28.8835 36.0052C27.6056 36.0052 26.3336 36.0052 25.0558 36.0052L25.0499 35.9992Z" fill="#3CBF8B"></path><path d="M13.1046 35.9992C11.8268 35.9992 10.5548 35.9992 9.27693 35.9992C8.56701 35.9992 8.11147 35.5638 8.10555 34.8481C8.09372 33.7088 8.09372 32.5696 8.10555 31.4304C8.11147 30.7325 8.57292 30.2852 9.25919 30.2852C11.8208 30.2852 14.3825 30.2852 16.9442 30.2852C17.6304 30.2852 18.0978 30.7385 18.1037 31.4304C18.1155 32.5815 18.1155 33.7267 18.1037 34.8779C18.0978 35.5579 17.6363 36.0052 16.9619 36.0052C15.6781 36.0052 14.3943 36.0052 13.1105 36.0052L13.1046 35.9992Z" fill="#3CBF8B"></path><path d="M27.0138 12.058C27.0019 12.3801 26.9073 12.5948 26.7712 12.7976C25.8187 14.2053 24.8544 15.6129 23.8487 16.9848C23.4227 17.5574 23.0204 17.6349 22.4111 17.2591C21.8431 16.9072 21.5296 16.6806 22.1034 15.8634C23.1683 14.3544 24.1918 12.8096 25.233 11.2826C25.5407 10.8353 25.8187 10.7816 26.2683 11.0858C26.4458 11.2051 26.6292 11.3184 26.7653 11.4854C26.925 11.6882 27.0197 11.9089 27.0197 12.0521L27.0138 12.058Z" fill="#578BFF"></path></svg>