<svg viewBox="0 0 41 40" fill="none" xmlns="http://www.w3.org/2000/svg" class="_176hfm41o _176hfm456 _1dl1177uk"><path d="M4.59961 9.59781C4.74175 9.40274 4.91943 9.37614 5.14597 9.44707C6.10988 9.73968 7.07379 10.0323 8.04658 10.3027C8.38862 10.3958 8.49967 10.5776 8.49967 10.9234C8.49078 16.3366 8.49522 21.7498 8.49522 27.163C8.49522 27.6374 8.49522 27.6329 8.97051 27.6374C11.6002 27.6507 14.212 27.8191 16.7706 28.4842C18.0233 28.8122 19.227 29.2644 20.3331 29.9472C20.5285 30.0669 20.6751 30.0624 20.8706 29.9472C22.7362 28.8167 24.8106 28.3068 26.9428 27.9876C28.7062 27.7216 30.4875 27.6551 32.2687 27.6374C32.6685 27.6374 32.7084 27.593 32.7129 27.1852C32.7129 24.2547 32.7129 21.3242 32.7129 18.3937C32.7129 15.911 32.7129 13.4283 32.7129 10.9456C32.7129 10.4579 32.7262 10.4402 33.2015 10.2983C34.1476 10.019 35.0938 9.73524 36.0399 9.45594C36.453 9.3318 36.6041 9.44264 36.6041 9.87268C36.6041 16.5006 36.6041 23.133 36.6041 29.761C36.6041 30.1555 36.4886 30.262 36.0932 30.222C33.9211 30.0137 31.749 29.956 29.5724 30.1156C27.2093 30.2886 24.9083 30.7009 22.8028 31.8757C22.332 32.1373 21.8256 32.3324 21.3148 32.5141C20.8217 32.6915 20.342 32.6782 19.8534 32.5008C19.2937 32.2969 18.7473 32.0708 18.2276 31.787C16.5574 30.8693 14.7406 30.457 12.8661 30.2353C10.2898 29.9339 7.71344 29.9826 5.13265 30.2265C4.91943 30.2486 4.74619 30.2087 4.59961 30.0491V9.59781H4.59961Z" fill="#3CBF8B"></path><path d="M10.2231 6.35742C10.9694 6.71653 11.76 6.98697 12.5285 7.29731C14.7584 8.18842 16.9882 9.07954 19.2225 9.95292C19.5335 10.0726 19.6534 10.2367 19.6534 10.5736C19.6445 16.1863 19.649 21.7946 19.6445 27.4073C19.6445 27.9304 19.4846 28.0368 18.9871 27.8462C17.1792 27.1413 15.2958 26.7822 13.3769 26.5694C12.3508 26.4541 11.3247 26.3876 10.2942 26.3743C9.87218 26.3699 9.79223 26.2723 9.79223 25.8157C9.79223 19.9547 9.79223 14.0937 9.79223 8.23276C9.79223 7.77611 9.80111 7.31947 9.79223 6.86283C9.78779 6.64559 9.84553 6.47712 10.0365 6.36629H10.2231V6.35742Z" fill="#578BFF"></path><path d="M31.1622 6.35742C31.3532 6.46826 31.4065 6.63673 31.4065 6.85396C31.4065 13.1937 31.4065 19.5291 31.4065 25.8689C31.4065 26.2723 31.3088 26.3566 30.8735 26.3654C28.4082 26.4231 25.974 26.6846 23.5976 27.3718C23.1267 27.5092 22.6692 27.6733 22.2117 27.8417C21.7142 28.0235 21.5542 27.926 21.5542 27.4028C21.5542 23.9137 21.5542 20.4202 21.5542 16.9311C21.5542 14.8208 21.5587 12.7105 21.5498 10.6046C21.5498 10.2633 21.6564 10.0859 21.9851 9.95735C24.8946 8.81353 27.7997 7.65198 30.7092 6.49486C30.8024 6.45496 30.909 6.44166 30.9846 6.36186H31.1711L31.1622 6.35742Z" fill="#578BFF"></path></svg>