<svg viewBox="0 0 41 40" fill="none" xmlns="http://www.w3.org/2000/svg" class="_176hfm41o _176hfm456 _1dl1177uk"><path d="M30.3672 19.5224C30.3672 22.4298 30.3523 25.3321 30.3821 28.2394C30.3871 28.8464 30.2034 29.03 29.6326 28.9943C28.8534 28.9484 28.0741 28.9943 27.2949 28.979C26.461 28.9637 25.915 28.6067 25.7214 27.8059C25.6123 27.357 25.3988 27.3468 25.0613 27.3366C23.6021 27.2907 22.1329 27.5049 20.6885 27.1887C17.9239 26.5868 16.0428 24.8832 15.0302 22.1951C14.8317 21.6749 14.6282 21.4096 14.0624 21.4862C13.705 21.5372 13.3327 21.4964 12.9654 21.4862C12.7719 21.4862 12.5138 21.4862 12.4393 21.2974C12.1117 20.4813 11.4268 20.7006 10.8411 20.7108C7.1483 20.7772 4.35886 19.196 2.51742 15.9111C1.56445 14.2279 1.35102 12.3764 1.41058 10.4738C1.42051 10.1678 1.48503 9.98414 1.81758 10.0198C1.86721 10.0198 1.91685 10.0198 1.96152 10.0198C3.20569 9.97564 3.83935 10.5877 3.86251 11.8561C3.92207 15.2429 6.62714 17.9922 10.1412 18.2217C10.6525 18.2523 11.1637 18.237 11.6749 18.237C11.8636 18.237 12.1018 18.2829 12.1812 18.0432C12.3847 17.426 12.8711 17.3648 13.3675 17.4362C14.3453 17.5739 14.8317 17.2577 15.2685 16.2376C16.5838 13.1874 19.0307 11.698 22.257 11.5806C23.1802 11.5449 24.1083 11.5653 25.0365 11.5806C25.4088 11.5857 25.6271 11.5449 25.7612 11.091C25.9696 10.3769 26.5156 10.0147 27.2651 10.0249C28.0691 10.03 28.8732 10.0555 29.6773 10.0147C30.2282 9.98414 30.3871 10.1831 30.3821 10.739C30.3573 13.6668 30.3722 16.5997 30.3722 19.5275L30.3672 19.5224ZM18.3111 17.676L18.2465 17.7933C19.9391 19.2878 21.6316 20.7874 23.4829 22.4247V19.7927L27.0665 21.2056L27.146 21.0577L22.0336 16.5283V19.15L18.3111 17.676Z" fill="#578BFF"></path><path d="M34.9283 25.8061C33.9555 25.8061 32.9827 25.7806 32.0098 25.8163C31.5284 25.8316 31.2852 25.7347 31.3398 25.1736C31.4093 24.4799 31.0668 23.5873 31.4688 23.1385C31.8758 22.6794 32.7593 23.0058 33.4294 22.9956C34.8638 22.9701 36.2982 22.9854 37.7327 22.9905C38.7303 22.9905 39.3805 23.5465 39.3954 24.383C39.4103 25.2501 38.7551 25.801 37.7029 25.8061C36.7797 25.8061 35.8565 25.8061 34.9283 25.8061Z" fill="#3CBF8B"></path><path d="M34.9086 13.1975C35.9062 13.1975 36.9039 13.1873 37.9015 13.1975C38.7801 13.2077 39.4005 13.7994 39.4005 14.5951C39.4005 15.35 38.7999 15.9876 37.976 15.9978C35.9311 16.0233 33.8911 15.9978 31.8462 16.0131C31.459 16.0131 31.3349 15.8703 31.3498 15.4928C31.3697 14.896 31.3746 14.2941 31.3498 13.6923C31.3349 13.2995 31.4689 13.172 31.8511 13.1822C32.8736 13.2026 33.896 13.1924 34.9136 13.1924L34.9086 13.1975Z" fill="#3CBF8B"></path></svg>