<svg viewBox="0 0 41 40" fill="none" xmlns="http://www.w3.org/2000/svg" class="_176hfm41o _176hfm456 _1dl1177uk"><path d="M16.3484 9H6.87963C5.62041 9 4.59961 10.0208 4.59961 11.28C4.59961 12.5392 5.62041 13.56 6.87963 13.56H16.3484C17.6077 13.56 18.6285 12.5392 18.6285 11.28C18.6285 10.0208 17.6077 9 16.3484 9Z" fill="#3CBF8B"></path><path d="M19.587 15.0022C19.5267 15.0692 19.4663 15.1363 19.406 15.2033C19.178 15.4716 18.9701 15.7465 18.7689 16.0416H18.7622C18.494 16.4439 18.2592 16.8597 18.0514 17.2956C17.763 17.9058 17.535 18.5496 17.3808 19.2202H8.92456C7.66384 19.2202 6.64453 18.2009 6.64453 16.9402C6.64453 16.3098 6.89936 15.7398 7.30842 15.3308C7.71748 14.9217 8.2942 14.6602 8.92456 14.6602H18.3934C18.8293 14.6602 19.2383 14.7809 19.587 15.0022Z" fill="#3CBF8B"></path><path d="M17.6494 24.4713C17.2806 24.7328 16.8313 24.8804 16.3484 24.8804H6.87963C5.61891 24.8804 4.59961 23.8611 4.59961 22.6003C4.59961 21.97 4.85444 21.4067 5.2702 20.9909C5.67927 20.5751 6.24927 20.3203 6.87963 20.3203H16.3484C16.6435 20.3203 16.9184 20.374 17.1733 20.4813C17.1599 20.6489 17.1465 20.8098 17.1397 20.9775C17.133 21.1183 17.133 21.2591 17.133 21.3933C17.133 21.5475 17.133 21.7084 17.1397 21.8694C17.1867 22.7747 17.361 23.6465 17.6494 24.4713Z" fill="#3CBF8B"></path><path d="M20.0435 28.2529V28.2664C20.0435 28.89 19.7887 29.4667 19.3796 29.8758C18.9638 30.2916 18.3938 30.5464 17.7635 30.5464H8.29467C7.03395 30.5464 6.01465 29.5204 6.01465 28.2664C6.01465 27.636 6.26947 27.066 6.67854 26.6502C7.09431 26.2412 7.66431 25.9863 8.29467 25.9863H17.7635C17.9647 25.9863 18.1658 26.0132 18.3536 26.0668C18.4274 26.1942 18.5011 26.3216 18.5816 26.4423C18.9907 27.1062 19.4802 27.7098 20.0435 28.2529Z" fill="#3CBF8B"></path><path d="M30.5049 25.845C29.1637 26.0663 28.7345 25.8785 28.084 24.6982C27.8359 24.2489 27.5744 23.8198 27.3732 23.357C27.0111 22.5255 26.5484 21.8952 25.4955 22.0762C25.1133 22.1433 25.0194 21.9019 25.0261 21.5666C25.0261 21.2313 25.0395 20.9429 25.5022 20.9697C25.8979 20.9966 26.2868 20.9697 26.6825 20.9563C27.0379 20.9429 27.333 20.7887 27.5543 20.5137C27.6548 20.393 27.8292 20.2455 27.7018 20.0845C27.6347 19.9974 27.4537 19.984 27.3262 19.9772C26.7428 19.9772 26.1527 19.9571 25.5626 19.9772C25.1602 19.9907 25.0261 19.8297 25.0194 19.4408C25.0194 19.0451 25.0932 18.7903 25.5693 18.8104C26.1527 18.8372 26.7428 18.8238 27.333 18.8104C27.4805 18.8104 27.6884 18.8775 27.7621 18.6629C27.8225 18.4818 27.6884 18.341 27.5744 18.2203C27.0446 17.6637 26.3338 17.8045 25.6699 17.7911C25.3078 17.7911 25.0127 17.7911 25.0127 17.2815C25.0127 16.8389 25.0999 16.6042 25.6095 16.631C26.3673 16.6712 27.1318 16.6444 27.8828 16.6444C28.6339 16.6444 29.4051 16.6712 30.1562 16.6444C30.6189 16.6243 30.7128 16.8187 30.7195 17.2345C30.7329 17.6972 30.5518 17.7844 30.136 17.8179C29.8745 17.8313 29.3447 17.5095 29.3649 18.0661C29.385 18.4684 29.5996 18.9512 30.2366 18.8372C30.6792 18.7568 30.7195 19.0719 30.7262 19.4139C30.7262 19.7761 30.6591 20.0443 30.2232 19.9705C29.7136 19.8834 29.4386 20.1248 29.2643 20.5607C29.224 20.6613 29.1503 20.782 29.0631 20.8289C28.0103 21.3587 28.2114 21.9756 28.8552 22.7401C29.5191 23.5314 29.6398 24.7251 30.7597 25.2213C30.9542 25.3085 31.0279 25.7645 30.5049 25.8517V25.845Z" fill="#578BFF"></path><path d="M28.0504 11.8359C25.2406 11.8359 22.7057 13.0564 20.9622 15.0011C20.9018 15.0682 20.8415 15.1353 20.7811 15.2023C20.5531 15.4706 20.3452 15.7455 20.1441 16.0406H20.1374C19.8691 16.4429 19.6344 16.8587 19.4265 17.2946C19.1382 17.9048 18.9102 18.5486 18.7559 19.2192C18.6553 19.6283 18.5883 20.0507 18.548 20.4799C18.5346 20.6476 18.5212 20.8085 18.5145 20.9762C18.5078 21.117 18.5078 21.2578 18.5078 21.3919C18.5078 21.5462 18.5078 21.7071 18.5145 21.868C18.5615 22.7733 18.7358 23.6451 19.0242 24.47C19.1382 24.8254 19.2857 25.1741 19.4466 25.5094C19.5338 25.6971 19.6277 25.8849 19.7283 26.066C19.8021 26.1934 19.8758 26.3208 19.9563 26.4415C20.3654 27.1054 20.8549 27.7089 21.4182 28.2521C21.5993 28.4265 21.7937 28.5941 21.9882 28.7551C23.6312 30.1164 25.7502 30.9345 28.0504 30.9345C33.3213 30.9345 37.5997 26.6628 37.5997 21.3919C37.5997 16.121 33.3213 11.8359 28.0504 11.8359ZM28.0504 28.2991C24.228 28.2991 21.1433 25.2076 21.1433 21.3919C21.1433 21.231 21.1433 21.0767 21.1634 20.9158C21.2304 19.8294 21.559 18.8034 22.0821 17.9115C23.2757 15.8528 25.5021 14.4714 28.0504 14.4714C31.8728 14.4714 34.9575 17.5762 34.9575 21.3919C34.9575 25.2076 31.8728 28.2991 28.0504 28.2991Z" fill="#578BFF"></path></svg>