<svg viewBox="0 0 41 40" fill="none" xmlns="http://www.w3.org/2000/svg" class="_176hfm41o _176hfm456 _1dl1177uk"><path d="M36.4003 20.8832V21.997C36.3632 22.1362 36.2982 22.2661 36.2797 22.4054C35.6578 25.793 35.036 29.19 34.4327 32.5777C34.0522 34.7124 32.4929 36.0489 30.3118 36.0489C23.6942 36.0489 17.0766 36.0489 10.4683 36.0489C8.27789 36.0489 6.70934 34.731 6.35665 32.5777C5.79049 29.1529 5.25218 25.7281 4.70458 22.3033C4.35189 20.0665 5.44708 18.8135 7.72101 18.8135C16.1485 18.8135 24.5666 18.832 32.9941 18.7949C34.6369 18.7949 35.8249 19.2868 36.4096 20.8925L36.4003 20.8832ZM19.1556 27.4822C19.1556 28.299 19.1463 29.125 19.1556 29.9418C19.1742 30.8328 19.7032 31.3897 20.4921 31.3897C21.2718 31.3897 21.8101 30.8235 21.8194 29.9325C21.8379 28.2712 21.8379 26.6098 21.8194 24.9484C21.8194 24.0482 21.2903 23.482 20.5107 23.4634C19.7125 23.4449 19.1649 24.0296 19.1463 24.9577C19.137 25.8023 19.1463 26.6376 19.1463 27.4822H19.1556ZM13.2063 27.4173C13.2063 28.2804 13.197 29.1436 13.2063 29.9975C13.2156 30.8421 13.7446 31.3897 14.5149 31.3897C15.2946 31.3897 15.8236 30.8607 15.8329 30.0068C15.8515 28.2804 15.8515 26.5634 15.8329 24.8371C15.8236 23.9925 15.2667 23.4542 14.4964 23.4634C13.7446 23.4727 13.2156 24.0482 13.2063 24.8835C13.197 25.7281 13.2063 26.5634 13.2063 27.408V27.4173ZM25.1421 27.4451C25.1421 28.3083 25.1235 29.1715 25.1421 30.0253C25.1606 30.8792 25.699 31.4083 26.4786 31.3897C27.2489 31.3804 27.7687 30.8235 27.7687 29.9789C27.778 28.2804 27.778 26.5727 27.7687 24.8742C27.7687 24.0389 27.2211 23.4727 26.46 23.4727C25.699 23.4727 25.1606 24.0203 25.1421 24.8649C25.1235 25.7281 25.1421 26.5912 25.1421 27.4451Z" fill="#578BFF"></path><path d="M30.8499 4.23194C31.4068 4.59391 31.843 5.02085 31.7316 5.77264C31.6852 6.09749 31.5553 6.41305 31.2861 6.54299C30.7478 6.80287 30.8685 7.12771 31.1098 7.49897C32.7712 10.0977 33.4208 12.9285 33.096 16.0007C33.0032 16.9381 33.2167 16.8174 32.27 16.8174C28.3254 16.8174 24.3808 16.8174 20.4363 16.8267C19.9444 16.8267 19.8144 16.6875 19.8237 16.2049C19.8515 15.0354 19.8423 13.866 19.8237 12.6965C19.8237 11.8983 19.9815 11.1558 20.3527 10.4411C20.9003 9.38308 21.4108 8.31572 21.9306 7.23909C22.0048 7.08131 22.1904 6.94209 21.9213 6.72862C20.8168 5.84689 20.8911 5.01157 22.0976 4.22266H30.8499V4.23194Z" fill="#3CBF8B"></path><path d="M12.77 16.8177C11.2664 16.8177 9.77215 16.8084 8.26858 16.8177C7.85092 16.8177 7.72098 16.762 7.91589 16.3165C9.43802 12.7896 13.8559 10.9148 17.42 12.2791C17.7355 12.3998 17.8562 12.5669 17.8469 12.9103C17.8283 14.0426 17.8283 15.1656 17.8469 16.298C17.8469 16.6971 17.7263 16.8177 17.3272 16.8177C15.805 16.7992 14.2922 16.8177 12.77 16.8177Z" fill="#3CBF8B"></path></svg>