<svg viewBox="0 0 40 40" fill="none" xmlns="http://www.w3.org/2000/svg" class="_176hfm41o _176hfm456 _1dl1177uk"><path d="M27.6556 6.10742C28.0335 6.22907 28.4161 6.35072 28.7174 6.62677C29.234 7.09465 29.4349 7.68418 29.4157 8.35325C29.4109 8.56379 29.4588 8.65737 29.6979 8.70884C31.6111 9.10653 32.9694 10.5897 33.2038 12.508C33.419 14.2719 32.4194 16.0546 30.7358 16.864C30.1188 17.1634 29.454 17.3085 28.7653 17.3085C26.4838 17.3085 24.2071 17.3131 21.9257 17.3085C20.9404 17.3085 20.0986 17.6173 19.4194 18.3331C19.075 18.6981 18.8503 19.1285 18.702 19.5964C18.6542 19.7508 18.6876 19.821 18.8694 19.8491C19.8738 20.0035 20.5482 20.5743 20.8926 21.4913C21.1748 22.2446 21.4187 23.0119 21.6722 23.7746C21.7583 24.0272 21.7822 24.2939 21.7822 24.5606C21.7822 26.6286 21.7822 28.6967 21.787 30.7647C21.787 30.9893 21.7152 31.0267 21.5048 31.0267C19.1372 31.022 16.7697 31.0174 14.4069 31.0267C14.1869 31.0267 14.1343 30.9612 14.1343 30.7553C14.1439 28.6873 14.1391 26.6193 14.1343 24.5513C14.1343 24.1957 14.2012 23.8541 14.316 23.5219C14.5361 22.8762 14.7561 22.2259 14.9761 21.5802C15.33 20.5509 16.0666 19.9614 17.1619 19.8163C17.3197 19.7976 17.3723 19.7508 17.4058 19.5964C17.8602 17.4863 19.6299 16.0733 21.8348 16.0639C24.1306 16.0546 26.4264 16.0639 28.727 16.0639C30.2719 16.0592 31.5106 15.1001 31.8694 13.6543C32.2616 12.0869 31.2476 10.3932 29.6597 9.95807C29.4683 9.90661 29.4109 9.93 29.4062 10.1405C29.3966 11.2775 28.7844 12.0495 27.7274 12.2834C27.603 12.3115 27.4691 12.3162 27.3399 12.3162C21.5 12.3162 15.6553 12.3162 9.81531 12.3162C8.7535 12.3162 7.83518 11.4927 7.78735 10.454C7.75865 9.63056 7.76343 8.79773 7.78735 7.96958C7.81605 7.12272 8.48087 6.38815 9.35615 6.16357C9.41354 6.14953 9.4805 6.15889 9.52355 6.10742H27.6556Z" fill="#578BFF"></path><path d="M17.9364 36.0009C15.9515 35.9915 14.3109 34.499 14.1483 32.5619C14.1292 32.3327 14.177 32.2578 14.4305 32.2578C16.7885 32.2672 19.1465 32.2672 21.5044 32.2578C21.7436 32.2578 21.7962 32.3233 21.7723 32.5479C21.581 34.5317 19.95 36.0055 17.9412 36.0009H17.9364Z" fill="#3CBF8B"></path><rect x="7.76758" y="5" width="22.1429" height="7.75" rx="2" fill="#3CBF8B"></rect></svg>