<svg viewBox="0 0 41 40" fill="none" xmlns="http://www.w3.org/2000/svg" class="_176hfm41o _176hfm456 _1dl1177uk"><path d="M23.5136 17.4597C23.4471 17.0054 23.4471 16.5289 23.3806 16.0746C23.1479 14.6008 22.6271 13.2489 21.8736 11.9746C21.4858 11.3319 21.0979 10.667 20.7101 10.0243C20.6769 9.96893 20.6436 9.92461 20.6104 9.8692C20.5217 9.72515 20.5106 9.66974 20.699 9.59217C21.4082 9.2819 21.796 8.72785 21.796 7.94109C21.8071 6.68893 21.796 5.43677 21.796 4.18461C21.796 3.09866 21.242 2.46704 20.1671 2.30082C20.1339 2.30082 20.1006 2.27866 20.0563 2.26758H8.6428C8.18848 2.32298 7.7674 2.45596 7.43497 2.79947C7.10253 3.1319 6.92524 3.53082 6.92524 3.99623C6.92524 5.30379 6.91416 6.62244 6.92524 7.93001C6.93632 8.72785 7.31307 9.29298 8.04443 9.60325C8.2328 9.68082 8.19956 9.73623 8.12199 9.8692C7.70091 10.5562 7.29091 11.2543 6.86983 11.9524C5.76172 13.7808 5.21875 15.7643 5.21875 17.9141C5.22983 23.1443 5.21875 28.3635 5.21875 33.5827C5.21875 34.8238 5.73956 35.7324 6.83659 36.3087C7.25767 36.5303 7.71199 36.5968 8.18848 36.5968C12.3106 36.5968 16.4328 36.5857 20.555 36.5968C21.0536 36.5968 21.4969 36.486 21.8847 36.2976C22.0842 36.1978 22.2725 36.076 22.4388 35.943C22.605 35.8211 22.749 35.677 22.882 35.5219C23.0704 35.2892 23.2144 35.0343 23.3252 34.7684C23.4139 34.5135 23.4804 34.2587 23.4915 34.0038C23.5025 33.9484 23.5247 33.893 23.5358 33.8376V17.6149C23.5247 17.5595 23.5136 17.5151 23.5136 17.4597ZM22.3833 32.3306C22.3833 32.4081 22.3723 32.4857 22.3833 32.5633C22.3612 32.94 22.3723 33.3168 22.3723 33.6935C22.3723 34.0703 22.2725 34.4027 22.0842 34.6687C22.0398 34.7462 21.9844 34.8238 21.9179 34.8903H21.9069C21.7185 35.1119 21.4636 35.2781 21.1755 35.3557C20.9982 35.4222 20.7988 35.4554 20.5882 35.4554H8.13307C7.11362 35.4554 6.39334 34.7684 6.3601 33.7489C6.34902 33.2724 6.37118 32.807 6.34902 32.3306C6.34902 32.2973 6.34902 32.253 6.3601 32.2308H6.34902V19.2106H6.3601C6.3601 19.2106 6.34902 19.1441 6.34902 19.0997C6.38226 18.1246 6.32686 17.1384 6.48199 16.1522C6.69253 14.8889 7.14686 13.7033 7.81172 12.6062C8.34361 11.7197 8.87551 10.8333 9.39632 9.94677C9.49605 9.79163 9.59578 9.72515 9.78416 9.72515H18.9371C19.059 9.72515 19.1809 9.70298 19.2585 9.84704C19.4025 10.0908 19.5466 10.3235 19.6906 10.5562C20.2669 11.5203 20.8763 12.4622 21.375 13.4595C22.0177 14.7338 22.3169 16.0746 22.3612 17.4708C22.3723 17.5927 22.3723 17.7257 22.3723 17.8476C22.3723 18.2797 22.3612 18.7008 22.3833 19.1219C22.3833 19.2327 22.3723 19.3103 22.339 19.3546V32.1311C22.339 32.1311 22.3833 32.2419 22.3833 32.3306Z" fill="#578BFF"></path><path d="M29.0646 31.1001L28.9871 31.1887L26.2611 34.1252C25.7403 34.6904 25.0533 35.0228 24.333 35.1003C24.4217 34.8455 24.4881 34.5906 24.4992 34.3358C24.5103 34.2804 24.5325 34.2249 24.5435 34.1695V26.9336C26.1503 28.4074 27.5908 29.7371 29.0646 31.1001Z" fill="#3CBF8B"></path><path d="M28.5438 22.4784L25.1309 26.1795L29.7073 30.4124L33.1203 26.7114C34.2838 25.4481 34.2063 23.4757 32.943 22.3122C31.6798 21.1487 29.7073 21.2262 28.5438 22.4895V22.4784Z" fill="#578BFF"></path><path d="M29.098 31.1895V37.417H24.9758C24.178 37.417 23.4577 37.1178 22.8926 36.6303C23.092 36.5305 23.2804 36.4086 23.4466 36.2757C23.6128 36.1538 23.7569 36.0097 23.8899 35.8546C24.0783 35.6219 24.2223 35.367 24.3331 35.1011C24.4218 34.8462 24.4883 34.5913 24.4993 34.3365C24.5104 34.2811 24.5326 34.2257 24.5437 34.1703V31.2227C24.6877 31.2005 24.8318 31.1895 24.9758 31.1895H29.098Z" fill="#578BFF"></path><path d="M35.0816 31.1895H30.0508V37.417H35.0816C36.7992 37.417 38.1954 36.0208 38.1954 34.3032C38.1954 32.5857 36.7992 31.1895 35.0816 31.1895Z" fill="#3CBF8B"></path><path d="M21.1198 20.0859H7.54544C7.30166 20.0859 7.11328 20.2854 7.11328 20.5181V30.9676C7.11328 31.2113 7.30166 31.3997 7.54544 31.3997H21.1198C21.3525 31.3997 21.5519 31.2113 21.5519 30.9676V20.5181C21.5519 20.2854 21.3525 20.0859 21.1198 20.0859ZM17.4852 26.3911H14.9365V29.2832H12.9752V26.3911H10.4154V24.5405H12.9752V21.7592H14.9365V24.5405H17.4852V26.3911Z" fill="#3CBF8B"></path></svg>