<svg viewBox="0 0 41 40" fill="none" xmlns="http://www.w3.org/2000/svg" class="_176hfm41o _176hfm456 _1dl1177uk"><path d="M16.545 6H7.9236C6.63093 6 5.58301 7.02814 5.58301 8.29642V16.7552C5.58301 18.0234 6.63093 19.0516 7.9236 19.0516H16.545C17.8377 19.0516 18.8856 18.0234 18.8856 16.7552V8.29642C18.8856 7.02814 17.8377 6 16.545 6Z" fill="#578BFF"></path><path d="M16.545 20.9531H7.9236C6.63093 20.9531 5.58301 21.9813 5.58301 23.2495V31.7083C5.58301 32.9766 6.63093 34.0047 7.9236 34.0047H16.545C17.8377 34.0047 18.8856 32.9766 18.8856 31.7083V23.2495C18.8856 21.9813 17.8377 20.9531 16.545 20.9531Z" fill="#578BFF"></path><path d="M32.4093 6H23.7879C22.4952 6 21.4473 7.02814 21.4473 8.29642V16.7552C21.4473 18.0234 22.4952 19.0516 23.7879 19.0516H32.4093C33.702 19.0516 34.7499 18.0234 34.7499 16.7552V8.29642C34.7499 7.02814 33.702 6 32.4093 6Z" fill="#578BFF"></path><path d="M28.101 20.9238H28.0961C24.4241 20.9238 21.4473 23.8444 21.4473 27.4472V27.452C21.4473 31.0548 24.4241 33.9754 28.0961 33.9754H28.101C31.7731 33.9754 34.7499 31.0548 34.7499 27.452V27.4472C34.7499 23.8444 31.7731 20.9238 28.101 20.9238Z" fill="#3CBF8B"></path><path d="M28.101 20.9238H28.0961C24.4241 20.9238 21.4473 23.8444 21.4473 27.4472V27.452C21.4473 31.0548 24.4241 33.9754 28.0961 33.9754H28.101C31.7731 33.9754 34.7499 31.0548 34.7499 27.452V27.4472C34.7499 23.8444 31.7731 20.9238 28.101 20.9238Z" fill="#3CBF8B"></path></svg>