<svg viewBox="0 0 41 40" fill="none" xmlns="http://www.w3.org/2000/svg" class="_176hfm41o _176hfm456 _1dl1177uk"><path d="M28.8986 3C29.4145 3.36391 29.4702 3.62385 29.1496 4.19099C27.8854 6.41701 26.6259 8.64303 25.3617 10.8691C25.1154 11.2991 25.134 11.6394 25.4035 11.8946C25.766 12.2444 26.3191 12.1546 26.5887 11.6867C27.0813 10.8312 27.5647 9.96636 28.0527 9.11093C28.8475 7.70726 29.6469 6.30359 30.4416 4.89992C30.6089 4.60689 30.8041 4.38004 31.1713 4.38476C31.6361 4.38476 31.98 4.84793 31.8406 5.29691C31.7987 5.44342 31.7197 5.58048 31.6454 5.71282C30.3998 7.91048 29.1542 10.1081 27.9133 12.3058C27.8436 12.4287 27.7692 12.5563 27.7367 12.6934C27.653 13.0336 27.8343 13.3834 28.155 13.5441C28.4245 13.6764 28.7963 13.5913 29.0055 13.3314C29.0891 13.2274 29.1496 13.114 29.2146 12.9958C30.4556 10.8123 31.7011 8.62413 32.9421 6.44064C32.9932 6.35557 33.0397 6.26578 33.0954 6.18543C33.3185 5.87351 33.6717 5.76953 33.9831 5.92077C34.3224 6.09091 34.4851 6.469 34.355 6.84237C34.2992 6.99833 34.2109 7.14012 34.1319 7.2819C32.9002 9.46066 31.664 11.6394 30.4277 13.8135C30.3487 13.9552 30.2604 14.097 30.2511 14.2672C30.2278 14.6169 30.3951 14.9005 30.7112 15.0281C31.0086 15.1462 31.3665 15.0612 31.5524 14.7823C31.7476 14.494 31.9149 14.1821 32.0869 13.8749C33.207 11.8994 34.3317 9.9191 35.4518 7.94356C35.5122 7.83959 35.568 7.73089 35.6424 7.63636C35.8654 7.35752 36.2001 7.29135 36.4836 7.46622C36.7578 7.63164 36.8693 7.9861 36.7439 8.30748C36.7113 8.38782 36.6648 8.46344 36.623 8.53906C34.9917 11.4126 33.365 14.2908 31.7244 17.1596C30.581 19.1587 28.5314 20.0992 26.3005 19.6408C26.0449 19.5888 26.0077 19.7448 25.9334 19.9007C23.9674 23.866 21.9968 27.8312 20.0308 31.7965C19.2872 33.29 18.5343 34.7834 17.8139 36.2863C17.6001 36.7306 17.284 36.9433 16.8286 36.9716C15.253 37.0662 14.3885 36.6077 13.6867 35.067C13.5101 34.6795 13.5566 34.3203 13.7983 33.9469C17.1074 28.8332 20.398 23.71 23.7071 18.5963C23.8559 18.3695 23.8419 18.2513 23.656 18.0528C22.3128 16.5924 22.0061 14.2057 22.9914 12.4098C24.2416 10.127 25.5476 7.8774 26.8304 5.61357C27.2208 4.92355 27.6158 4.24298 27.9969 3.54823C28.1224 3.32138 28.2758 3.13233 28.4989 3.00473H28.8893L28.8986 3Z" fill="#3CBF8B"></path><path d="M17.2423 27.0088C16.8798 26.3708 16.5266 25.78 16.2105 25.1704C16.0664 24.8962 15.9549 24.8915 15.7086 25.0427C14.6489 25.6902 13.5753 26.3094 12.511 26.9474C12.3297 27.0561 12.2321 27.075 12.1206 26.8481C9.89898 22.4103 7.89583 17.8826 6.58983 13.0667C6.17154 11.5259 5.86479 9.95684 5.80902 8.34995C5.77649 7.4189 5.8462 6.4973 6.16224 5.6135C6.38069 5.00855 6.73391 4.50758 7.23121 4.10113C7.43106 3.94044 7.52866 3.95935 7.6588 4.19093C10.0709 8.45393 12.4877 12.7122 14.9045 16.9657C16.2198 19.2863 17.5351 21.6068 18.8643 23.9179C19.0038 24.159 18.9852 24.3196 18.8411 24.5323C18.3113 25.3358 17.7954 26.1487 17.247 27.0041L17.2423 27.0088Z" fill="#578BFF"></path><path d="M22.0854 29.6172C22.9592 31.1532 23.805 32.6419 24.6509 34.1307C24.7857 34.367 24.9344 34.6033 25.0506 34.849C25.3946 35.5674 25.1203 36.4276 24.4325 36.8199C23.7958 37.1838 22.9406 36.9853 22.5455 36.3236C21.8763 35.2035 21.2488 34.0551 20.5982 32.9208C20.5424 32.8263 20.5284 32.7412 20.5796 32.6419C21.0722 31.6494 21.5695 30.6569 22.0854 29.6172Z" fill="#578BFF"></path></svg>