<svg viewBox="0 0 40 40" fill="none" xmlns="http://www.w3.org/2000/svg" class="_176hfm41o _176hfm456 _1dl1177uk"><g clip-path="url(#TransportVectorIcon)"><path d="M5.63022 20.51H1.74022C1.45022 20.51 1.15022 20.51 0.860221 20.51C0.320221 20.49 -0.009779 20.26 0.000221003 19.7C0.010221 19.15 0.330221 18.92 0.880221 18.93C2.21022 18.93 3.55022 18.93 4.88022 18.93H5.57022V17.8H4.10022C3.56022 17.8 3.22022 17.58 3.21022 17.03C3.19022 16.48 3.55022 16.22 4.05022 16.18C4.55022 16.14 5.05022 16.18 5.58022 16.18V15.13C4.66022 15.13 3.74022 15.13 2.81022 15.13C2.55022 15.13 2.20022 15.17 2.04022 15.03C1.78022 14.8 1.46022 14.4 1.52022 14.14C1.57022 13.88 2.04022 13.54 2.35022 13.51C3.41022 13.43 4.47022 13.48 5.62022 13.48C5.62022 12.82 5.62022 12.23 5.62022 11.64C5.65022 10.63 6.24022 10.01 7.26022 10C13.2102 10 19.1502 10 25.1002 10C26.1602 10 26.7302 10.57 26.7402 11.61C26.7502 16.66 26.7402 21.7 26.7402 26.75C26.7402 27.63 26.2002 28.32 25.3202 28.34C22.4502 28.4 19.5702 28.36 16.7102 28.36C16.3002 25.54 15.0902 24.28 12.8702 24.33C10.8802 24.37 9.69022 25.74 9.41022 28.4C8.57022 28.36 7.70022 28.4 6.85022 28.26C6.02022 28.12 5.65022 27.54 5.64022 26.67C5.64022 24.93 5.64022 23.19 5.64022 21.44V20.5L5.63022 20.51Z" fill="#578BFF"></path><path d="M28.9096 14.8499C31.0796 14.8499 33.1796 14.7899 35.2696 14.8899C35.7596 14.9099 36.4096 15.3299 36.6696 15.7599C37.8096 17.5999 38.8296 19.5099 39.8896 21.3999C39.9496 21.5099 39.9897 21.6399 39.9897 21.7699C39.9897 23.7399 39.9897 25.7099 39.9897 27.7399H38.1396C37.9596 26.5899 37.5796 25.4599 36.4496 24.8599C35.7996 24.5099 35.0096 24.2499 34.2796 24.2499C32.4496 24.2499 31.2296 25.5199 30.7296 27.7599H28.8896V14.8499H28.9096ZM30.8896 20.4199H37.4496C36.7497 19.2399 36.1096 18.1399 35.4496 17.0499C35.3596 16.9099 35.1996 16.7199 35.0696 16.7199C33.6696 16.6999 32.2796 16.6999 30.8896 16.6999V20.4199Z" fill="#3CBF8B"></path><path d="M13.07 29.9992C11.76 29.9992 10.75 28.9892 10.75 27.7292C10.75 26.4292 11.81 25.4492 13.17 25.4792C14.45 25.4992 15.49 26.5492 15.45 27.7992C15.41 29.0692 14.39 30.0192 13.06 30.0092L13.07 29.9992Z" fill="#578BFF"></path><path d="M34.4697 25.4805C35.7897 25.4805 36.7697 26.4505 36.7797 27.7405C36.7797 29.0405 35.8097 30.0005 34.4797 30.0005C33.1097 30.0005 32.1297 29.0505 32.1397 27.7105C32.1497 26.4105 33.1297 25.4705 34.4697 25.4805Z" fill="#578BFF"></path></g><defs><clipPath id="TransportVectorIcon"><rect width="40" height="40" fill="white"></rect></clipPath></defs></svg>