<svg viewBox="0 0 41 40" fill="none" xmlns="http://www.w3.org/2000/svg" class="_176hfm41o _176hfm456 _1dl1177uk"><path d="M26.6805 11C29.3079 11 31.931 11 34.5583 11C35.7816 11 36.5131 11.6829 36.5173 12.8881C36.5257 17.4831 36.5257 22.0738 36.5173 26.6688C36.5173 27.7959 35.7564 28.4952 34.592 28.5075C34.201 28.5075 33.8059 28.524 33.4149 28.5034C33.0954 28.487 32.9609 28.5487 32.9105 28.9148C32.7003 30.4533 31.5779 31.638 30.1234 31.926C28.0215 32.3414 26.113 31.0045 25.8314 28.8942C25.7852 28.5487 25.659 28.5034 25.3564 28.5034C22.0817 28.5117 18.807 28.5117 15.5322 28.5034C15.2001 28.5034 15.0656 28.5816 15.0236 28.9312C14.8176 30.7412 13.2875 32.0123 11.3748 31.9959C9.63441 31.9835 8.12106 30.6137 7.95291 28.8819C7.92769 28.598 7.84361 28.4911 7.54935 28.5034C7.08274 28.524 6.61192 28.5158 6.14531 28.5034C5.10278 28.4746 4.35031 27.7506 4.3419 26.7263C4.32929 25.1015 4.34611 23.4766 4.3335 21.8517C4.3335 21.5802 4.41337 21.4979 4.69081 21.4979C8.02437 21.5062 11.3621 21.5062 14.6957 21.4979C14.99 21.4979 15.0866 21.5843 15.0824 21.8764C15.0656 22.7937 15.0909 23.707 15.0698 24.6243C15.0614 24.941 15.1707 25.0315 15.4818 25.011C15.9148 24.9822 16.4907 25.1467 16.7513 24.9328C17.0498 24.686 16.848 24.1019 16.848 23.6658C16.8564 20.0787 16.8522 16.4876 16.8522 12.9005C16.8522 11.724 17.5921 11 18.8027 11C21.4301 11 24.0532 11 26.6805 11ZM11.4588 30.2311C12.4257 30.2476 13.279 29.4454 13.2874 28.5117C13.2959 27.5532 12.4971 26.7469 11.5219 26.7305C10.5676 26.714 9.72268 27.4915 9.70166 28.4047C9.67644 29.3879 10.4709 30.2147 11.4588 30.2311ZM31.1491 28.4952C31.1491 27.5203 30.363 26.7387 29.3835 26.7305C28.3957 26.7222 27.5844 27.5079 27.5928 28.4623C27.6012 29.4537 28.3704 30.2229 29.3541 30.227C30.3336 30.2311 31.1533 29.4413 31.1533 28.4911L31.1491 28.4952Z" fill="#578BFF"></path><path d="M5.17442 19.7574C5.76295 18.8894 6.29682 18.1078 6.82649 17.3221C7.27629 16.6599 7.73029 15.9976 8.17589 15.3312C8.51219 14.8293 8.9704 14.5208 9.59255 14.5167C11.3245 14.5043 13.0606 14.5043 14.7926 14.4961C15.0112 14.4961 15.0784 14.5825 15.0784 14.7882C15.0742 16.339 15.0658 17.8857 15.0784 19.4365C15.0784 19.7903 14.8724 19.7574 14.6412 19.7574C12.7117 19.7574 10.7822 19.7574 8.84849 19.7574C7.65883 19.7574 6.46917 19.7574 5.16602 19.7574H5.17442Z" fill="#3CBF8B"></path></svg>