<svg viewBox="0 0 41 40" fill="none" xmlns="http://www.w3.org/2000/svg" class="_176hfm41o _176hfm456 _1dl1177uk"><path d="M20.6482 34.0001C15.7314 34.0001 10.8147 34.0001 5.89789 34.0001C5.61471 34.0001 5.34383 33.9837 5.10169 33.8075C4.83082 33.6107 4.67075 33.3484 4.67075 33.0123C4.66665 31.2333 4.66255 29.4585 4.67075 27.6795C4.67075 27.1754 5.11811 26.7655 5.65985 26.7245C5.72142 26.7204 5.78708 26.7245 5.84864 26.7245C15.6986 26.7245 25.5485 26.7245 35.3985 26.7245C35.5421 26.7245 35.6858 26.7327 35.8253 26.7614C36.3096 26.8515 36.6543 27.2246 36.6584 27.7123C36.6708 29.479 36.6708 31.2497 36.6584 33.0164C36.6584 33.5206 36.248 33.9304 35.7432 33.9837C35.6201 33.996 35.4929 33.996 35.3656 33.996C30.4571 33.996 25.5526 33.996 20.6441 33.996L20.6482 34.0001ZM31.4421 30.3234C31.4421 31.2087 32.148 31.9343 33.0099 31.9425C33.8553 31.9507 34.6064 31.2087 34.6064 30.3726C34.6064 29.4954 33.8881 28.7699 33.0181 28.774C32.1644 28.7781 31.4421 29.4872 31.4421 30.3234ZM19.0845 30.3398C19.0927 31.2251 19.8068 31.9466 20.6687 31.9425C21.5142 31.9425 22.2652 31.1882 22.2488 30.3603C22.2324 29.4749 21.5059 28.7576 20.6441 28.7781C19.7822 28.7986 19.0722 29.5036 19.0804 30.3398H19.0845ZM6.72693 30.3193C6.72693 31.2087 7.42053 31.9302 8.2865 31.9425C9.12785 31.9548 9.88712 31.2128 9.88712 30.3808C9.88712 29.5036 9.173 28.7781 8.30702 28.7781C7.44926 28.7781 6.72693 29.4831 6.72693 30.3193ZM12.9119 30.3439C12.9201 31.2374 13.6219 31.9507 14.4879 31.9425C15.3456 31.9343 16.0639 31.2087 16.0598 30.3562C16.0515 29.4708 15.3292 28.7576 14.4632 28.774C13.5932 28.7945 12.9037 29.4913 12.9119 30.3398V30.3439ZM25.2694 30.3439C25.2736 31.2333 25.9795 31.9507 26.8454 31.9466C27.7032 31.9466 28.4255 31.2128 28.4173 30.3644C28.4091 29.4872 27.7155 28.7863 26.8495 28.7822C25.9836 28.7781 25.2612 29.4872 25.2694 30.3439Z" fill="#578BFF"></path><path d="M33.1616 25.6864C32.1191 25.6864 31.0726 25.6823 30.0301 25.6905C29.8495 25.6905 29.8003 25.6454 29.8003 25.4651C29.8085 24.1657 29.8003 22.8622 29.8044 21.5629C29.8044 20.8333 30.2723 20.3291 31.0069 20.3209C32.4475 20.3045 33.888 20.3045 35.3286 20.3209C36.0796 20.3291 36.5516 20.8415 36.5516 21.5998C36.5516 22.8827 36.5516 24.1698 36.5557 25.4528C36.5557 25.6454 36.5024 25.6946 36.3136 25.6946C35.2629 25.6864 34.2081 25.6905 33.1575 25.6905L33.1616 25.6864Z" fill="#578BFF"></path><path d="M33.1659 10.8402C34.471 10.8607 35.4683 11.8691 35.4478 13.1602C35.4314 14.3858 34.3889 15.3901 33.1577 15.3737C31.8854 15.3573 30.8799 14.3203 30.8922 13.0455C30.9045 11.8322 31.9511 10.8197 33.1659 10.8361V10.8402Z" fill="#578BFF"></path><path d="M31.557 10.3363C30.6869 10.8979 30.1657 11.6521 29.9974 12.6358C29.8989 12.644 29.8415 12.5785 29.7758 12.5375C28.3886 11.6644 27.0014 10.7913 25.6101 9.92233C25.4706 9.83626 25.409 9.78707 25.5485 9.62721C25.9138 9.20912 26.1231 8.71724 26.1847 8.16388C26.1929 8.086 26.1601 7.94254 26.3406 8.02452C28.0644 8.79102 29.7922 9.55753 31.557 10.3363Z" fill="#578BFF"></path><path d="M23.3896 9.7062C22.3553 9.6816 21.5345 8.83312 21.5591 7.81247C21.5879 6.78773 22.4456 5.97204 23.4758 6.00073C24.4895 6.02943 25.3144 6.89431 25.2816 7.89445C25.2488 8.91919 24.4033 9.72669 23.3896 9.7021V9.7062Z" fill="#578BFF"></path><path d="M31.7495 15.9648C32.4472 16.3133 33.1326 16.3624 33.8426 16.2354C34.0519 16.1985 34.2489 16.1288 34.4377 16.0386C34.5567 15.9812 34.606 15.9894 34.606 16.1411C34.6019 17.174 34.606 18.207 34.606 19.2399C34.606 19.3506 34.5691 19.3957 34.4541 19.3957C33.5964 19.3957 32.7427 19.3957 31.8849 19.3957C31.7782 19.3957 31.7495 19.3506 31.7495 19.2522C31.7495 18.1701 31.7495 17.0921 31.7495 15.9648Z" fill="#578BFF"></path><path d="M12.6859 19.7644C12.8419 19.6907 12.9363 19.6497 13.0348 19.6005C13.9911 19.125 14.9473 18.6577 15.8995 18.174C16.0719 18.088 16.2073 18.0798 16.3797 18.174C17.3483 18.6659 18.3291 19.1414 19.3018 19.6374C19.5399 19.7562 19.6096 19.7398 19.6055 19.4529C19.5932 17.9076 19.6055 16.3582 19.5932 14.8129C19.5932 14.5383 19.6425 14.4317 19.9462 14.4399C20.6644 14.4645 21.3867 14.4399 22.105 14.4481C22.659 14.4522 22.8847 14.6776 22.8847 15.2228C22.8847 18.4692 22.8847 21.7155 22.8847 24.9619C22.8847 25.4948 22.659 25.7243 22.1296 25.7243C18.1362 25.7243 14.147 25.7243 10.1537 25.7243C9.62015 25.7243 9.40674 25.503 9.40674 24.9619C9.40674 21.7155 9.40674 18.4692 9.40674 15.2228C9.40674 14.6735 9.62426 14.4563 10.1824 14.4522C10.9006 14.4481 11.623 14.4604 12.3412 14.444C12.608 14.4358 12.6942 14.5014 12.6901 14.7842C12.6777 16.309 12.6818 17.8338 12.6818 19.3586C12.6818 19.4775 12.6818 19.5964 12.6818 19.7726L12.6859 19.7644Z" fill="#3CBF8B"></path><path d="M16.1744 14.4477C16.7941 14.4477 17.4179 14.4559 18.0376 14.4436C18.2675 14.4395 18.366 14.4846 18.3619 14.7469C18.3454 15.6487 18.3495 16.5505 18.3619 17.4563C18.3619 17.6982 18.3085 17.7392 18.091 17.6285C17.5287 17.3416 16.9582 17.0751 16.396 16.7882C16.2236 16.698 16.08 16.7021 15.9076 16.7882C15.3453 17.0751 14.7748 17.3416 14.2126 17.6285C14.0238 17.7228 13.9458 17.7187 13.9458 17.4768C13.954 16.5505 13.954 15.6282 13.9458 14.7018C13.9458 14.4928 14.0279 14.4477 14.2167 14.4477C14.8692 14.4559 15.5218 14.4477 16.1785 14.4477H16.1744Z" fill="#3CBF8B"></path></svg>