<svg viewBox="0 0 40 40" fill="none" xmlns="http://www.w3.org/2000/svg" class="_176hfm41o _176hfm456 _1dl1177uk"><path d="M15.0298 4C15.2998 4.09 15.5798 4.12 15.8498 4.22C17.2898 4.75 18.1898 6.26 17.9398 7.79C17.6998 9.35 16.3598 10.52 14.8098 10.55C13.0298 10.58 11.6298 9.29 11.4698 7.48C11.3298 5.84 12.5698 4.32 14.2498 4.06C14.3098 4.06 14.3598 4.02 14.4198 4.01H15.0198L15.0298 4Z" fill="#3CBF8B"></path><path d="M36.24 24.73H36.25C35.22 21.92 36.16 22.1 35.35 22.1H4.64C3.84 22.1 4.77 21.92 3.75 24.73C3.25 26.11 3 27.57 3 29.04C3 30.51 3.24 31.93 3.73 33.28C4.76 36.14 3.86 35.99 4.61 35.99H35.38C36.13 35.99 35.23 36.14 36.26 33.28C37.24 30.54 37.23 27.46 36.24 24.73ZM20.18 32.21C18.49 32.21 17.12 30.84 17.12 29.14C17.12 27.44 18.49 26.06 20.18 26.06C21.87 26.06 23.24 27.44 23.24 29.14C23.24 30.84 21.87 32.21 20.18 32.21Z" fill="#578BFF"></path><path d="M18.6302 15.0204C18.6302 16.8704 18.6302 18.6804 18.6302 20.5004C18.6302 20.7704 18.5702 20.8604 18.2802 20.8604C15.9002 20.8504 13.5102 20.8604 11.1302 20.8604C10.8602 20.8604 10.7902 20.7904 10.7902 20.5204C10.8002 18.8004 10.7902 17.0804 10.7902 15.3604C10.7902 15.2604 10.8202 15.1604 10.7402 15.0404C10.4702 15.5804 10.3202 16.1304 10.2002 16.6904C9.9202 17.9704 9.8102 19.2604 9.7802 20.5704C9.7802 20.7904 9.7302 20.8704 9.5002 20.8604C8.9002 20.8404 8.3002 20.8604 7.7002 20.8604C7.5302 20.8604 7.4502 20.8204 7.4502 20.6304C7.5102 18.4804 7.6902 16.3604 8.4902 14.3404C8.9402 13.2004 9.6102 12.2404 10.7402 11.6704C11.0902 11.5004 11.4602 11.4004 11.8502 11.4004C13.7502 11.4004 15.6402 11.4004 17.5402 11.4004C18.5502 11.4004 19.2902 11.9604 19.9202 12.6904C20.6502 13.5604 21.0402 14.5904 21.3202 15.6704C21.7502 17.2904 21.8502 18.9604 21.9202 20.6304C21.9202 20.7904 21.8702 20.8504 21.7102 20.8404C21.0802 20.8404 20.4502 20.8404 19.8202 20.8404C19.6202 20.8404 19.5902 20.7404 19.5902 20.5804C19.5502 19.6504 19.5102 18.7104 19.3702 17.7804C19.2502 16.9304 19.0902 16.1004 18.7702 15.3004C18.7302 15.2104 18.7202 15.1004 18.6002 15.0104L18.6302 15.0204Z" fill="#3CBF8B"></path><path d="M27.7998 16.5603C28.6198 16.5603 29.4498 16.5603 30.2698 16.5603C30.4798 16.5603 30.5498 16.5003 30.5398 16.2803C30.5298 15.7603 30.5398 15.2403 30.5398 14.7203C30.5398 14.5403 30.4798 14.4703 30.2998 14.4703C29.8798 14.4703 29.4698 14.4703 29.0498 14.4703C28.8698 14.4703 28.7798 14.4303 28.7798 14.2203C28.7998 13.6803 28.7898 13.1403 28.7798 12.6003C28.7798 12.4203 28.8198 12.3503 29.0098 12.3603C30.3098 12.3603 31.6098 12.3603 32.8998 12.3603C33.0698 12.3603 33.1298 12.4103 33.1298 12.5803C33.1298 13.1403 33.1298 13.7003 33.1298 14.2603C33.1298 14.4203 33.0698 14.4803 32.9198 14.4703C32.5498 14.4703 32.1898 14.4703 31.8198 14.4703C31.6698 14.4703 31.5998 14.5203 31.5998 14.6803C31.5998 15.2303 31.5998 15.7803 31.5998 16.3303C31.5998 16.5103 31.6698 16.5603 31.8298 16.5503C32.2698 16.5503 32.6998 16.5503 33.1398 16.5503C33.3498 16.5503 33.4398 16.5903 33.4398 16.8303C33.4298 18.0703 33.4398 19.3203 33.4398 20.5603C33.4398 20.7703 33.3798 20.8403 33.1698 20.8403C30.5398 20.8403 27.9198 20.8403 25.2898 20.8403C25.0898 20.8403 25.0298 20.7803 25.0298 20.5803C25.0298 19.3303 25.0298 18.0803 25.0298 16.8203C25.0298 16.5903 25.1098 16.5503 25.3098 16.5503C26.1298 16.5503 26.9598 16.5503 27.7798 16.5503L27.7998 16.5603Z" fill="#3CBF8B"></path></svg>