<svg viewBox="0 0 40 40" fill="none" xmlns="http://www.w3.org/2000/svg" class="_176hfm41o _176hfm456 _1dl1177uk"><path d="M6 20.9043C8.7574 20.9043 11.5108 20.9043 14.2682 20.9004C14.497 20.9004 14.5692 20.9474 14.5772 21.1865C14.7297 26.0031 14.5973 30.8198 14.6495 35.6365C14.6495 35.9108 14.5973 36.0009 14.2923 35.997C12.5744 35.9813 10.8565 35.9892 9.13468 35.9892C8.18344 35.9892 7.2322 35.9774 6.28497 35.9696C6.18864 35.9696 6.09633 35.95 6 35.9422V20.9043V20.9043Z" fill="#578BFF"></path><path d="M22.2593 21.7975C22.4279 21.7975 22.5322 21.7975 22.6326 21.7975C25.0528 21.7975 27.4771 21.7975 29.8973 21.7975C30.977 21.7975 31.7998 22.4638 31.9563 23.4397C32.1329 24.5449 31.4426 25.5011 30.3228 25.7128C30.2425 25.7285 30.1582 25.7402 30.0498 25.7598C30.6358 26.4143 30.8205 27.1472 30.4873 27.9389C30.1502 28.7305 29.4839 29.1146 28.6009 29.1656C29.8371 30.5216 29.0183 32.5047 27.0757 32.5909C27.3326 32.8849 27.5333 33.1866 27.6216 33.5472C27.9346 34.8444 26.9673 35.9849 25.5385 35.9849C23.038 35.9888 20.5414 35.9849 18.0409 35.9849C17.3586 35.9849 16.6763 35.9732 15.9939 35.9928C15.7331 36.0006 15.6809 35.9222 15.6809 35.6792C15.6889 32.2068 15.6849 28.7345 15.6849 25.2582C15.6849 24.0197 15.6969 22.7812 15.6769 21.5428C15.6729 21.2488 15.7772 21.1626 16.0461 21.1587C16.6843 21.143 17.3144 21.0764 17.8964 20.7981C19.4899 20.0378 20.3287 18.7876 20.409 17.0553C20.4572 16.0168 21.2198 15.276 22.2272 15.3035C23.2507 15.3309 24.0012 16.1187 23.9772 17.1572C23.941 18.7602 23.4393 20.2142 22.476 21.5114C22.4198 21.5859 22.3637 21.6604 22.2673 21.7936L22.2593 21.7975Z" fill="#578BFF"></path><path d="M27.3768 20.3439C26.5981 20.3439 25.8194 20.3399 25.0408 20.3439C24.8361 20.3439 24.8241 20.2929 24.8883 20.1205C25.2776 19.0819 25.4783 18.008 25.4422 16.895C25.4141 16.1229 25.113 15.4567 24.5913 14.8845C24.4949 14.7786 24.4307 14.6728 24.4588 14.5356C24.4949 14.3397 24.3906 14.2417 24.226 14.1437C22.2352 12.9249 21.2599 11.1573 21.3964 8.87637C21.5288 6.71299 22.6888 5.15708 24.6354 4.15377C25.1371 3.89511 25.0689 3.9343 25.0689 4.4242C25.0689 5.70968 25.0769 6.99517 25.0649 8.28066C25.0649 8.51581 25.109 8.60595 25.3779 8.60203C26.5981 8.58635 27.8183 8.59027 29.0384 8.60203C29.2672 8.60203 29.3274 8.5354 29.3274 8.31593C29.3194 6.96382 29.3274 5.6117 29.3194 4.26351C29.3194 4.02444 29.3675 3.96565 29.6003 4.07931C31.6232 5.06694 32.8233 6.64244 32.9798 8.85677C33.1444 11.1573 32.137 12.9209 30.1502 14.1476C29.9856 14.2495 29.9254 14.3554 29.9254 14.5474C29.9335 16.3855 29.9254 18.2275 29.9335 20.0656C29.9335 20.2811 29.8893 20.3517 29.6525 20.3478C28.8939 20.3321 28.1353 20.3399 27.3768 20.3399V20.3439Z" fill="#3CBF8B"></path></svg>