<svg viewBox="0 0 41 40" fill="none" xmlns="http://www.w3.org/2000/svg" class="_176hfm41o _176hfm456 _1dl1177uk"><path d="M30.6665 11.6699C29.54 11.6813 28.4021 11.6699 27.2755 11.6699C27.1276 11.6699 27.0252 11.6699 26.9341 11.522C26.1148 10.1792 25.2841 8.84786 24.4534 7.5051C24.442 7.48234 24.4307 7.4482 24.4193 7.41406H15.1793C14.3372 8.77958 13.4838 10.1451 12.6417 11.5106C12.5621 11.6472 12.4596 11.6699 12.3117 11.6699H8.88653C8.68171 11.6699 8.60205 11.6927 8.60205 11.9089V33.3361C8.60205 33.5296 8.65895 33.5751 8.86377 33.5751H30.7007C30.9283 33.5751 30.9738 33.5182 30.9738 33.3248V11.943C30.9738 11.7154 30.9055 11.6699 30.6665 11.6699ZM15.3045 11.431C15.68 10.7596 16.0555 10.0768 16.4196 9.39406C16.4879 9.26889 16.5789 9.22337 16.7383 9.22337H22.9058C23.0652 9.22337 23.1562 9.26889 23.2245 9.40544C23.5658 10.0882 23.93 10.771 24.2941 11.4537C24.3965 11.6585 24.3169 11.6699 24.1234 11.6699H15.4752C15.2476 11.6699 15.1793 11.6699 15.3045 11.431ZM28.4021 18.9185L21.8248 26.9751C21.6769 27.1572 21.4493 27.2823 21.1989 27.3051C20.9486 27.3279 20.6983 27.2482 20.5048 27.1003L16.1465 23.5727L13.1424 27.9423C12.9717 28.1927 12.6758 28.3292 12.38 28.3292H12.3686C12.2093 28.3292 12.0386 28.2951 11.8907 28.2041C11.4696 27.9651 11.3445 27.4416 11.6062 27.0548L15.1793 21.8544C15.3272 21.6496 15.5548 21.513 15.8165 21.4789C16.0783 21.4448 16.34 21.513 16.5448 21.6837L20.9714 25.2568L26.9569 17.9172C27.2641 17.5416 27.8217 17.4734 28.2314 17.7465C28.6296 18.0196 28.6979 18.543 28.4021 18.9185Z" fill="#578BFF"></path><path d="M36.3336 32.5516C36.1743 33.0295 35.8898 33.3936 35.3436 33.5416C35.2412 33.5757 35.1274 33.5871 35.0136 33.5871C34.2057 33.5871 33.3978 33.5871 32.5898 33.5871C32.3736 33.5871 32.3281 33.5302 32.3281 33.3367C32.3281 31.5047 32.3281 29.6726 32.3281 27.8405C32.3281 22.5605 32.3281 17.2805 32.3281 11.9891C32.3281 11.7388 32.385 11.6478 32.6695 11.6591C33.3978 11.6819 34.1374 11.6591 34.8657 11.6591C35.594 11.6591 36.0947 12.0005 36.2767 12.6833C36.2767 12.706 36.2995 12.7288 36.3223 12.7402V32.5516H36.3336Z" fill="#3CBF8B"></path><path d="M7.3164 22.6627C7.3164 26.2016 7.3164 29.7406 7.3164 33.2796C7.3164 33.5185 7.27089 33.5982 6.9864 33.5982C6.21261 33.5754 5.4502 33.5982 4.6764 33.5982C3.92537 33.5982 3.3564 33.0975 3.32227 32.392V13.0585C3.32227 12.171 3.85709 11.6816 4.82433 11.6816C5.55261 11.6816 6.29227 11.6816 7.02054 11.6816C7.25951 11.6816 7.3164 11.7385 7.3164 11.9547C7.3164 15.5278 7.3164 19.101 7.3164 22.6741V22.6627Z" fill="#3CBF8B"></path></svg>