<svg viewBox="0 0 512 512" xmlns="http://www.w3.org/2000/svg" class="w-8 h-8"><defs></defs><defs><linearGradient id="b" x1="1.2" y1=".5" x2="-.2" y2=".5" gradientUnits="objectBoundingBox"><stop offset="0" stop-color="#27e0a1"></stop><stop offset="1" stop-color="#209a70"></stop></linearGradient><linearGradient id="c" x2="1" y2="1" gradientUnits="objectBoundingBox"><stop offset="0" stop-color="#8399f4"></stop><stop offset="1" stop-color="#3854cb"></stop></linearGradient><clipPath id="a"><path d="M0 0h512v512H0z"></path></clipPath></defs><g data-name="512*512 without name"><g data-name="Group 8426" clip-path="url(#a)"><g data-name="Group 8415" transform="translate(93 83)"><path data-name="Subtraction 7" d="M273.5 339.3h-7a9.2 9.2 0 009.1-9.2V21.2a9.2 9.2 0 00-9.2-9.1h7a16 16 0 0116 16v295.2a16 16 0 01-16 16z" fill="#3f5ad0" stroke="rgba(0,0,0,0)" stroke-miterlimit="10"></path><rect data-name="Rectangle 959" width="282" height="327.2" rx="16" transform="translate(0 12)" fill="#fff"></rect><rect data-name="Rectangle 936" width="264.5" height="327.2" rx="16" transform="translate(0 12)" fill="#7f98ff"></rect><path data-name="Rectangle 951" d="M0 0h50.2a12 12 0 0112 12v61.6a12 12 0 01-12 12H0V0z" transform="translate(263.4 69.3)" fill="url(#b)"></path><rect data-name="Rectangle 939" width="271" height="327.2" rx="16" transform="translate(0 12)" fill="url(#c)"></rect><text transform="translate(27.4 275)" fill="#fff" font-size="284" font-family="Montserrat-Bold, Montserrat" font-weight="700"><tspan x="0" y="0">C</tspan></text></g></g></g></svg>