<svg viewBox="0 0 48 48" fill="none" xmlns="http://www.w3.org/2000/svg" class=""><g clip-path="url(#NoCashbooksFoundIcon)"><path d="M0.87983 16.598L10.8718 26.59C12.0358 27.754 13.9228 27.754 15.0868 26.59C16.2508 25.425 16.2508 23.538 15.0868 22.374L12.0498 19.337C32.4358 18.335 45.6898 32.017 45.8128 46.041C45.8168 46.548 46.5288 46.651 46.6868 46.185C51.6088 31.606 42.6568 13.295 19.2598 9.98395C16.9938 9.68895 14.7018 9.46495 12.3918 9.30295L15.0888 6.60595C16.2528 5.44195 16.2528 3.55395 15.0888 2.39095C13.9248 1.22695 12.0378 1.22595 10.8738 2.39095L0.88183 12.383C-0.28417 13.546 -0.28417 15.433 0.87983 16.598Z" fill="#F27D77"></path></g><defs><clipPath id="NoCashbooksFoundIcon"><rect width="48" height="48" fill="white" transform="matrix(1.19249e-08 1 1 -1.19249e-08 0 0)"></rect></clipPath></defs></svg>