<svg width="345" height="280" viewBox="0 0 368 301" fill="none" xmlns="http://www.w3.org/2000/svg"><g clip-path="url(#clip0_81_1057)"><ellipse cx="230.045" cy="152.107" rx="136.001" ry="135.543" fill="#D8DFFD"></ellipse><ellipse cx="14.9569" cy="114.697" rx="14.4472" ry="14.3986" fill="#D6DCF8"></ellipse><ellipse cx="26.0045" cy="88.4409" rx="5.099" ry="5.08184" fill="#D6DCF8"></ellipse><rect x="44.7004" y="96.0636" width="287.244" height="204.968" rx="15.2713" fill="#3A4060"></rect><rect x="51.499" y="102.839" width="273.647" height="191.416" rx="11.8776" fill="white"></rect><g clip-path="url(#ImageTwo)"><rect x="51.3892" y="102.582" width="275.421" height="194.362" fill="white"></rect><rect x="51.3882" y="136.681" width="81.2577" height="160.264" fill="#171717"></rect><rect x="55.6646" y="140.943" width="72.7042" height="18.7542" rx="1.70781" fill="#22263B"></rect><rect x="55.6646" y="163.96" width="72.7042" height="28.9838" rx="1.70781" fill="#22263B"></rect><rect x="55.6646" y="221.927" width="72.7042" height="28.9838" rx="1.70781" fill="#22263B"></rect><rect x="55.6646" y="254.321" width="72.7042" height="28.9838" rx="1.70781" fill="#22263B"></rect><path d="M81.325 150.32L112.973 150.32" stroke="#424763" stroke-width="2.56171" stroke-linecap="round"></path><path d="M76.1929 202.32L89.8784 202.32" stroke="#424763" stroke-width="2.56171" stroke-linecap="round"></path><path d="M76.1929 213.403L107.841 213.403" stroke="#424763" stroke-width="2.56171" stroke-linecap="round"></path><rect x="59.0867" y="144.353" width="11.9748" height="11.9345" rx="2.56171" fill="#4E62CD"></rect><path d="M81.3245 174.189L112.972 174.189" stroke="#424763" stroke-width="2.56171" stroke-linecap="round"></path><path d="M81.3245 182.714H94.1546" stroke="#424763" stroke-width="2.56171" stroke-linecap="round"></path><rect x="59.0859" y="172.484" width="11.9748" height="11.9345" rx="2.56171" fill="#454B68"></rect><path d="M81.3245 232.156L100.997 232.156" stroke="#424763" stroke-width="2.56171" stroke-linecap="round"></path><path d="M81.3245 240.681H89.8779" stroke="#424763" stroke-width="2.56171" stroke-linecap="round"></path><rect x="59.0859" y="230.452" width="11.9748" height="11.9345" rx="2.56171" fill="#454B68"></rect><path d="M81.3245 265.403L89.8779 265.403" stroke="#424763" stroke-width="2.56171" stroke-linecap="round"></path><path d="M81.3245 273.927H100.997" stroke="#424763" stroke-width="2.56171" stroke-linecap="round"></path><rect x="59.0859" y="263.698" width="11.9748" height="11.9345" rx="2.56171" fill="#454B68"></rect><path d="M285.754 117.926L306.282 117.926" stroke="#C1C1C1" stroke-width="2.56171" stroke-linecap="round"></path><ellipse cx="275.489" cy="117.926" rx="5.98741" ry="5.96726" fill="#D9D9D9"></ellipse><path d="M319.977 116.914L319.399 116.287L317.518 118.324L315.636 116.287L315.059 116.914L317.518 119.583L319.977 116.914Z" fill="#212121"></path><path d="M69.0889 124.742H68.8313C69.0191 124.742 69.1693 124.592 69.1693 124.405V113.148C69.1693 112.961 69.0191 112.811 68.8313 112.811H69.0889C69.4108 112.811 69.6737 113.073 69.6737 113.394V124.159C69.6737 124.486 69.4108 124.742 69.0889 124.742Z" fill="#375BD7"></path><path d="M59.6718 112.817H68.8205C69.1424 112.817 69.4053 113.079 69.4053 113.4V124.165C69.4053 124.485 69.1424 124.747 68.8205 124.747H59.6718C59.3498 124.747 59.0869 124.485 59.0869 124.165V113.4C59.0869 113.073 59.3445 112.817 59.6718 112.817Z" fill="white"></path><path d="M59.6718 112.817H68.1766C68.4985 112.817 68.7614 113.079 68.7614 113.4V124.165C68.7614 124.485 68.4985 124.747 68.1766 124.747H59.6718C59.3498 124.747 59.0869 124.485 59.0869 124.165V113.4C59.0869 113.073 59.3445 112.817 59.6718 112.817Z" fill="#7898FF"></path><path d="M68.7185 114.902H70.5536C70.7951 114.902 70.9936 115.1 70.9936 115.341V117.587C70.9936 117.827 70.7951 118.025 70.5536 118.025H68.7185V114.902Z" fill="url(#paint0_linear_81_1057)"></path><path d="M59.6718 112.817H68.4127C68.7346 112.817 68.9975 113.079 68.9975 113.4V124.165C68.9975 124.485 68.7346 124.747 68.4127 124.747H59.6718C59.3498 124.747 59.0869 124.485 59.0869 124.165V113.4C59.0869 113.073 59.3445 112.817 59.6718 112.817Z" fill="url(#paint1_linear_81_1057)"></path><path d="M62.5154 122.047C61.9145 121.726 61.4476 121.282 61.1042 120.71C60.7608 120.143 60.5891 119.496 60.5891 118.78C60.5891 118.063 60.7608 117.416 61.1042 116.849C61.4476 116.282 61.9198 115.833 62.5154 115.512C63.1164 115.191 63.7871 115.031 64.5383 115.031C65.1661 115.031 65.7403 115.143 66.2447 115.362C66.7544 115.582 67.1837 115.903 67.5271 116.314L66.4486 117.309C65.9549 116.742 65.3486 116.459 64.6188 116.459C64.1681 116.459 63.7657 116.555 63.4115 116.753C63.0574 116.951 62.7837 117.223 62.5852 117.576C62.3867 117.929 62.2901 118.33 62.2901 118.78C62.2901 119.229 62.3867 119.63 62.5852 119.983C62.7837 120.336 63.0574 120.609 63.4115 120.806C63.7657 121.004 64.1681 121.101 64.6188 121.101C65.3486 121.101 65.9549 120.812 66.4486 120.24L67.5271 121.234C67.1783 121.657 66.749 121.978 66.2393 122.197C65.7242 122.416 65.1554 122.528 64.5276 122.528C63.7818 122.528 63.111 122.368 62.5154 122.047Z" fill="white"></path><path d="M73.0498 120.387C72.7332 120.216 72.4864 119.986 72.3093 119.686C72.1322 119.387 72.041 119.05 72.041 118.67C72.041 118.296 72.1322 117.954 72.3093 117.654C72.4917 117.355 72.7386 117.119 73.0498 116.953C73.3664 116.788 73.7151 116.702 74.1122 116.702C74.4449 116.702 74.74 116.761 75.0083 116.879C75.2766 116.996 75.502 117.162 75.6844 117.376L75.1156 117.9C74.8581 117.601 74.5361 117.456 74.1551 117.456C73.919 117.456 73.7098 117.51 73.522 117.611C73.3342 117.713 73.1947 117.857 73.0873 118.044C72.9854 118.232 72.9317 118.44 72.9317 118.675C72.9317 118.911 72.9854 119.119 73.0873 119.306C73.1893 119.494 73.3342 119.633 73.522 119.74C73.7098 119.841 73.919 119.895 74.1551 119.895C74.5361 119.895 74.8581 119.745 75.1156 119.446L75.6844 119.97C75.502 120.189 75.2766 120.36 75.0083 120.478C74.74 120.595 74.4395 120.654 74.1068 120.654C73.7151 120.638 73.3664 120.553 73.0498 120.387Z" fill="#4064DA"></path><path d="M78.7104 119.755H76.9397L76.6016 120.568H75.6948L77.3958 116.766H78.2704L79.9767 120.568H79.0484L78.7104 119.755ZM78.4367 119.087L77.8304 117.632L77.2241 119.087H78.4367Z" fill="#4064DA"></path><path d="M80.7549 120.515C80.4706 120.435 80.2452 120.328 80.0735 120.2L80.374 119.536C80.5349 119.654 80.7335 119.75 80.9588 119.825C81.1842 119.9 81.4096 119.932 81.6349 119.932C81.8871 119.932 82.0696 119.895 82.193 119.82C82.311 119.745 82.3754 119.649 82.3754 119.526C82.3754 119.435 82.3378 119.36 82.2681 119.301C82.1983 119.242 82.1071 119.194 81.9944 119.157C81.8818 119.119 81.7315 119.082 81.5437 119.039C81.254 118.97 81.0125 118.9 80.8301 118.831C80.6423 118.761 80.4867 118.649 80.3525 118.499C80.2184 118.349 80.154 118.146 80.154 117.889C80.154 117.67 80.213 117.467 80.3364 117.29C80.4598 117.114 80.6369 116.97 80.8784 116.863C81.1198 116.756 81.4149 116.708 81.7637 116.708C82.0052 116.708 82.2466 116.734 82.4774 116.793C82.7081 116.852 82.912 116.932 83.0891 117.044L82.8154 117.713C82.4613 117.515 82.1125 117.413 81.7583 117.413C81.5115 117.413 81.3291 117.451 81.211 117.531C81.093 117.611 81.034 117.718 81.034 117.847C81.034 117.975 81.1037 118.077 81.2379 118.135C81.372 118.2 81.5813 118.264 81.8603 118.323C82.15 118.392 82.3915 118.462 82.5739 118.531C82.7617 118.601 82.9174 118.708 83.0515 118.857C83.1856 119.007 83.25 119.205 83.25 119.462C83.25 119.681 83.191 119.879 83.0676 120.055C82.9442 120.237 82.7617 120.376 82.5203 120.483C82.2788 120.59 81.9783 120.638 81.6296 120.638C81.3291 120.638 81.034 120.595 80.7549 120.515Z" fill="#4064DA"></path><path d="M87.354 116.766V120.568H86.4686V119.007H84.7355V120.568H83.8501V116.766H84.7355V118.263H86.4686V116.766H87.354Z" fill="#4064DA"></path><path d="M91.5775 118.937C91.7009 119.098 91.7653 119.296 91.7653 119.531C91.7653 119.862 91.6366 120.119 91.3736 120.301C91.1161 120.483 90.7351 120.568 90.2361 120.568H88.2615V116.766H90.1234C90.5902 116.766 90.9444 116.857 91.1966 117.034C91.4434 117.21 91.5722 117.451 91.5722 117.755C91.5722 117.943 91.5292 118.103 91.438 118.247C91.3468 118.392 91.2234 118.504 91.0624 118.59C91.2824 118.665 91.4541 118.777 91.5775 118.937ZM89.1361 117.429V118.328H90.0161C90.2361 118.328 90.3971 118.29 90.5097 118.215C90.6224 118.14 90.6814 118.028 90.6814 117.878C90.6814 117.729 90.6224 117.616 90.5097 117.547C90.3971 117.472 90.2307 117.435 90.0161 117.435L89.1361 117.429ZM90.6975 119.793C90.8156 119.718 90.8746 119.6 90.8746 119.44C90.8746 119.124 90.6385 118.969 90.1717 118.969H89.1415V119.911H90.1717C90.4024 119.911 90.5741 119.873 90.6975 119.793Z" fill="#4064DA"></path><path d="M93.2085 120.381C92.8919 120.21 92.6397 119.975 92.4626 119.676C92.2856 119.376 92.1943 119.039 92.1943 118.665C92.1943 118.291 92.2856 117.954 92.4626 117.654C92.6451 117.355 92.8919 117.119 93.2085 116.948C93.5251 116.777 93.8846 116.692 94.2816 116.692C94.6787 116.692 95.0328 116.777 95.3494 116.948C95.666 117.119 95.9128 117.355 96.0953 117.654C96.2777 117.954 96.3689 118.291 96.3689 118.665C96.3689 119.039 96.2777 119.376 96.0953 119.676C95.9128 119.975 95.666 120.21 95.3494 120.381C95.0328 120.553 94.6787 120.638 94.2816 120.638C93.8846 120.638 93.5251 120.553 93.2085 120.381ZM94.888 119.734C95.0704 119.633 95.2099 119.488 95.3172 119.301C95.4192 119.114 95.4728 118.905 95.4728 118.67C95.4728 118.435 95.4192 118.226 95.3172 118.039C95.2153 117.852 95.0704 117.713 94.888 117.606C94.7055 117.504 94.5016 117.451 94.2763 117.451C94.0509 117.451 93.847 117.504 93.6646 117.606C93.4821 117.708 93.3426 117.852 93.2353 118.039C93.1334 118.226 93.0797 118.435 93.0797 118.67C93.0797 118.905 93.1334 119.114 93.2353 119.301C93.3373 119.488 93.4821 119.627 93.6646 119.734C93.847 119.836 94.0509 119.889 94.2763 119.889C94.507 119.889 94.7109 119.836 94.888 119.734Z" fill="#4064DA"></path><path d="M97.8115 120.381C97.4949 120.21 97.2427 119.975 97.0657 119.676C96.8886 119.376 96.7974 119.039 96.7974 118.665C96.7974 118.291 96.8886 117.954 97.0657 117.654C97.2481 117.355 97.4949 117.119 97.8115 116.948C98.1281 116.777 98.4876 116.692 98.8847 116.692C99.2817 116.692 99.6359 116.777 99.9524 116.948C100.269 117.119 100.516 117.355 100.698 117.654C100.881 117.954 100.972 118.291 100.972 118.665C100.972 119.039 100.881 119.376 100.698 119.676C100.516 119.975 100.269 120.21 99.9524 120.381C99.6359 120.553 99.2817 120.638 98.8847 120.638C98.4876 120.638 98.1281 120.553 97.8115 120.381ZM99.491 119.734C99.6734 119.633 99.8129 119.488 99.9203 119.301C100.022 119.114 100.076 118.905 100.076 118.67C100.076 118.435 100.022 118.226 99.9203 118.039C99.8183 117.852 99.6734 117.713 99.491 117.606C99.3086 117.504 99.1047 117.451 98.8793 117.451C98.6539 117.451 98.45 117.504 98.2676 117.606C98.0852 117.708 97.9456 117.852 97.8383 118.039C97.7364 118.226 97.6827 118.435 97.6827 118.67C97.6827 118.905 97.7364 119.114 97.8383 119.301C97.9403 119.488 98.0852 119.627 98.2676 119.734C98.45 119.836 98.6539 119.889 98.8793 119.889C99.1047 119.889 99.3086 119.836 99.491 119.734Z" fill="#4064DA"></path><path d="M103.028 119.077L102.513 119.611V120.574H101.633V116.772H102.513V118.547L104.204 116.772H105.185L103.603 118.467L105.277 120.574H104.246L103.028 119.077Z" fill="#4064DA"></path><path d="M161.728 150.32L193.375 150.32" stroke="#D6D6D6" stroke-width="2.56171" stroke-linecap="round"></path><path d="M215.615 174.189H223.313" stroke="#D6D6D6" stroke-width="2.56171" stroke-linecap="round"></path><path d="M215.615 180.156L236.998 180.156" stroke="#D6D6D6" stroke-width="2.56171" stroke-linecap="round"></path><path d="M215.615 186.124L227.59 186.124" stroke="#D6D6D6" stroke-width="2.56171" stroke-linecap="round"></path><path d="M151.162 149.832H145.1L147.885 147.047L147.177 146.345L143.192 150.33L147.177 154.315L147.88 153.612L145.1 150.828H151.162V149.832Z" fill="#212121"></path><g clip-path="url(#clip2_81_1057)"><path d="M218.169 206.912C217.282 206.912 215.517 207.355 215.517 208.238V208.901H220.821V208.238C220.821 207.355 219.055 206.912 218.169 206.912ZM216.403 208.143C216.722 207.923 217.491 207.669 218.169 207.669C218.847 207.669 219.616 207.923 219.934 208.143H216.403ZM218.169 206.249C218.9 206.249 219.495 205.654 219.495 204.923C219.495 204.192 218.9 203.597 218.169 203.597C217.438 203.597 216.843 204.192 216.843 204.923C216.843 205.654 217.438 206.249 218.169 206.249ZM218.169 204.354C218.483 204.354 218.737 204.608 218.737 204.923C218.737 205.237 218.483 205.491 218.169 205.491C217.854 205.491 217.6 205.237 217.6 204.923C217.6 204.608 217.854 204.354 218.169 204.354ZM220.836 206.934C221.275 207.253 221.578 207.677 221.578 208.238V208.901H223.094V208.238C223.094 207.472 221.768 207.037 220.836 206.934ZM220.442 206.249C221.173 206.249 221.768 205.654 221.768 204.923C221.768 204.192 221.173 203.597 220.442 203.597C220.237 203.597 220.048 203.646 219.873 203.729C220.112 204.067 220.252 204.479 220.252 204.923C220.252 205.366 220.112 205.779 219.873 206.116C220.048 206.199 220.237 206.249 220.442 206.249Z" fill="#9E9E9E"></path></g><path d="M229.994 203.445L231.109 205.738L232.224 203.445H233.141L231.524 206.48V208.249H230.69V206.48L229.073 203.445H229.994ZM233.217 206.503V206.428C233.217 206.17 233.254 205.932 233.329 205.712C233.404 205.49 233.512 205.297 233.652 205.134C233.795 204.969 233.969 204.842 234.174 204.752C234.38 204.659 234.613 204.613 234.873 204.613C235.135 204.613 235.368 204.659 235.572 204.752C235.779 204.842 235.954 204.969 236.097 205.134C236.24 205.297 236.349 205.49 236.423 205.712C236.498 205.932 236.536 206.17 236.536 206.428V206.503C236.536 206.761 236.498 206.999 236.423 207.219C236.349 207.439 236.24 207.632 236.097 207.797C235.954 207.959 235.78 208.087 235.576 208.179C235.371 208.27 235.139 208.315 234.879 208.315C234.618 208.315 234.384 208.27 234.177 208.179C233.972 208.087 233.799 207.959 233.656 207.797C233.513 207.632 233.404 207.439 233.329 207.219C233.254 206.999 233.217 206.761 233.217 206.503ZM234.012 206.428V206.503C234.012 206.664 234.028 206.816 234.061 206.959C234.094 207.102 234.146 207.227 234.216 207.335C234.287 207.443 234.377 207.527 234.487 207.589C234.597 207.65 234.728 207.681 234.879 207.681C235.027 207.681 235.154 207.65 235.262 207.589C235.372 207.527 235.462 207.443 235.533 207.335C235.603 207.227 235.655 207.102 235.688 206.959C235.723 206.816 235.741 206.664 235.741 206.503V206.428C235.741 206.269 235.723 206.12 235.688 205.979C235.655 205.836 235.602 205.71 235.529 205.6C235.459 205.49 235.369 205.404 235.259 205.342C235.151 205.278 235.022 205.247 234.873 205.247C234.723 205.247 234.594 205.278 234.484 205.342C234.376 205.404 234.287 205.49 234.216 205.6C234.146 205.71 234.094 205.836 234.061 205.979C234.028 206.12 234.012 206.269 234.012 206.428ZM239.35 207.407V204.679H240.148V208.249H239.396L239.35 207.407ZM239.462 206.665L239.729 206.659C239.729 206.898 239.703 207.119 239.65 207.322C239.597 207.522 239.516 207.697 239.406 207.846C239.296 207.994 239.155 208.109 238.983 208.193C238.812 208.274 238.606 208.315 238.367 208.315C238.193 208.315 238.033 208.289 237.888 208.239C237.743 208.188 237.618 208.11 237.512 208.005C237.409 207.899 237.328 207.762 237.271 207.592C237.214 207.423 237.185 207.22 237.185 206.985V204.679H237.981V206.992C237.981 207.122 237.996 207.23 238.027 207.318C238.058 207.404 238.099 207.473 238.152 207.526C238.205 207.579 238.266 207.616 238.337 207.638C238.407 207.66 238.482 207.671 238.561 207.671C238.788 207.671 238.966 207.627 239.096 207.539C239.228 207.449 239.321 207.328 239.376 207.176C239.433 207.025 239.462 206.854 239.462 206.665ZM241.761 205.359V208.249H240.966V204.679H241.725L241.761 205.359ZM242.853 204.656L242.847 205.395C242.798 205.386 242.745 205.38 242.688 205.375C242.633 205.371 242.578 205.369 242.523 205.369C242.387 205.369 242.267 205.388 242.164 205.428C242.06 205.465 241.973 205.52 241.903 205.593C241.835 205.663 241.782 205.749 241.745 205.85C241.707 205.951 241.685 206.065 241.679 206.19L241.497 206.203C241.497 205.979 241.519 205.771 241.563 205.58C241.607 205.388 241.673 205.22 241.761 205.075C241.851 204.93 241.964 204.817 242.098 204.735C242.234 204.654 242.391 204.613 242.569 204.613C242.618 204.613 242.67 204.618 242.724 204.626C242.782 204.635 242.825 204.645 242.853 204.656ZM246.931 203.445V208.249H246.109V203.445H246.931ZM248.438 203.445V204.105H244.615V203.445H248.438ZM250.249 208.315C249.986 208.315 249.747 208.272 249.534 208.186C249.322 208.098 249.142 207.976 248.993 207.82C248.845 207.664 248.732 207.48 248.653 207.269C248.574 207.058 248.534 206.83 248.534 206.586V206.454C248.534 206.175 248.575 205.922 248.656 205.695C248.737 205.469 248.851 205.275 248.996 205.115C249.141 204.952 249.313 204.828 249.511 204.742C249.708 204.656 249.923 204.613 250.154 204.613C250.409 204.613 250.632 204.656 250.824 204.742C251.015 204.828 251.173 204.949 251.299 205.105C251.426 205.259 251.521 205.442 251.582 205.656C251.646 205.869 251.678 206.104 251.678 206.362V206.701H248.92V206.131H250.893V206.068C250.888 205.925 250.86 205.791 250.807 205.666C250.756 205.54 250.678 205.439 250.573 205.362C250.467 205.285 250.326 205.247 250.151 205.247C250.019 205.247 249.901 205.275 249.798 205.332C249.696 205.387 249.612 205.468 249.544 205.573C249.475 205.679 249.423 205.806 249.385 205.956C249.35 206.103 249.332 206.269 249.332 206.454V206.586C249.332 206.742 249.353 206.887 249.395 207.021C249.439 207.153 249.503 207.269 249.586 207.368C249.67 207.467 249.771 207.545 249.89 207.602C250.009 207.657 250.144 207.685 250.296 207.685C250.487 207.685 250.657 207.646 250.807 207.569C250.957 207.492 251.086 207.383 251.196 207.242L251.615 207.648C251.538 207.76 251.438 207.868 251.315 207.972C251.192 208.073 251.041 208.155 250.863 208.219C250.687 208.283 250.483 208.315 250.249 208.315ZM254.311 207.533V205.83C254.311 205.703 254.287 205.593 254.241 205.501C254.195 205.408 254.125 205.337 254.03 205.286C253.938 205.236 253.821 205.21 253.68 205.21C253.551 205.21 253.439 205.232 253.344 205.276C253.249 205.32 253.176 205.38 253.123 205.454C253.07 205.529 253.044 205.614 253.044 205.708H252.252C252.252 205.568 252.286 205.431 252.354 205.299C252.422 205.167 252.521 205.05 252.651 204.946C252.781 204.843 252.936 204.762 253.116 204.702C253.297 204.643 253.499 204.613 253.723 204.613C253.992 204.613 254.229 204.658 254.436 204.748C254.645 204.839 254.809 204.975 254.927 205.158C255.048 205.338 255.109 205.564 255.109 205.837V207.424C255.109 207.587 255.12 207.733 255.142 207.863C255.166 207.99 255.2 208.101 255.244 208.196V208.249H254.429C254.392 208.163 254.362 208.054 254.34 207.922C254.32 207.788 254.311 207.658 254.311 207.533ZM254.426 206.078L254.433 206.569H253.862C253.715 206.569 253.585 206.584 253.473 206.612C253.36 206.639 253.267 206.678 253.192 206.731C253.117 206.784 253.061 206.848 253.024 206.922C252.987 206.997 252.968 207.082 252.968 207.176C252.968 207.271 252.99 207.358 253.034 207.437C253.078 207.514 253.142 207.575 253.225 207.619C253.311 207.663 253.414 207.685 253.535 207.685C253.698 207.685 253.84 207.652 253.961 207.586C254.084 207.517 254.181 207.435 254.251 207.338C254.322 207.239 254.359 207.146 254.363 207.058L254.621 207.411C254.594 207.501 254.549 207.598 254.485 207.701C254.422 207.804 254.338 207.903 254.235 207.998C254.133 208.09 254.011 208.166 253.868 208.226C253.728 208.285 253.565 208.315 253.38 208.315C253.147 208.315 252.939 208.268 252.757 208.176C252.574 208.082 252.431 207.955 252.328 207.797C252.224 207.636 252.173 207.455 252.173 207.252C252.173 207.063 252.208 206.896 252.278 206.751C252.351 206.604 252.457 206.48 252.595 206.381C252.736 206.282 252.907 206.208 253.11 206.157C253.312 206.104 253.543 206.078 253.802 206.078H254.426ZM256.735 205.405V208.249H255.94V204.679H256.689L256.735 205.405ZM256.607 206.332L256.336 206.329C256.336 206.082 256.367 205.855 256.428 205.646C256.49 205.437 256.58 205.255 256.699 205.101C256.818 204.945 256.965 204.825 257.141 204.742C257.319 204.656 257.525 204.613 257.758 204.613C257.921 204.613 258.069 204.637 258.203 204.686C258.34 204.732 258.457 204.806 258.556 204.907C258.658 205.008 258.734 205.138 258.787 205.296C258.842 205.454 258.87 205.646 258.87 205.87V208.249H258.075V205.939C258.075 205.766 258.048 205.629 257.996 205.53C257.945 205.431 257.871 205.361 257.774 205.319C257.68 205.275 257.567 205.253 257.435 205.253C257.285 205.253 257.158 205.282 257.052 205.339C256.949 205.396 256.864 205.474 256.798 205.573C256.732 205.672 256.684 205.787 256.653 205.916C256.622 206.046 256.607 206.185 256.607 206.332ZM258.82 206.121L258.447 206.203C258.447 205.988 258.477 205.784 258.537 205.593C258.598 205.399 258.687 205.23 258.804 205.085C258.923 204.938 259.069 204.822 259.243 204.739C259.416 204.655 259.615 204.613 259.84 204.613C260.022 204.613 260.185 204.638 260.328 204.689C260.473 204.737 260.596 204.814 260.697 204.92C260.799 205.026 260.876 205.163 260.928 205.332C260.981 205.499 261.007 205.702 261.007 205.939V208.249H260.209V205.936C260.209 205.756 260.183 205.616 260.13 205.517C260.079 205.418 260.007 205.35 259.912 205.313C259.818 205.273 259.704 205.253 259.572 205.253C259.449 205.253 259.34 205.276 259.246 205.322C259.153 205.366 259.075 205.429 259.012 205.51C258.948 205.59 258.899 205.681 258.866 205.784C258.836 205.888 258.82 206 258.82 206.121Z" fill="#9F9B9B"></path><rect x="141.625" y="160.124" width="180.479" height="132.131" stroke="#F0F0F0" stroke-width="0.853904"></rect><rect x="141.625" y="160.124" width="65.0076" height="132.131" stroke="#F0F0F0" stroke-width="0.853904"></rect><rect x="144.621" y="163.107" width="59.0187" height="16.1968" fill="#E3E6FC"></rect><rect x="144.621" y="181.861" width="59.0187" height="16.1968" fill="#F1F1F1"></rect><path d="M151.464 186.123L164.294 186.123" stroke="#DDDDDD" stroke-width="2.56171" stroke-linecap="round"></path><path d="M151.464 191.238L177.979 191.238" stroke="#DDDDDD" stroke-width="2.56171" stroke-linecap="round"></path><rect x="144.621" y="200.615" width="59.0187" height="16.1968" fill="#F1F1F1"></rect><path d="M151.464 205.73L164.294 205.73" stroke="#DDDDDD" stroke-width="2.56171" stroke-linecap="round"></path><path d="M151.464 210.845L177.979 210.845" stroke="#DDDDDD" stroke-width="2.56171" stroke-linecap="round"></path><rect x="266.935" y="173.336" width="47.8993" height="14" rx="2" fill="#4863D4"></rect><g clip-path="url(#clip3_81_1057)"><path d="M274.581 179.051C274.581 178.527 274.157 178.102 273.632 178.102C273.108 178.102 272.684 178.527 272.684 179.051C272.684 179.575 273.108 180 273.632 180C274.157 180 274.581 179.575 274.581 179.051ZM275.056 179.526V180H275.767V180.712H276.242V180H276.953V179.526H276.242V178.814H275.767V179.526H275.056ZM271.735 181.423V181.898H275.53V181.423C275.53 180.792 274.266 180.474 273.632 180.474C272.999 180.474 271.735 180.792 271.735 181.423Z" fill="white"></path></g><path d="M283.132 182H283.752L282.312 178.812H281.729L280.295 182H280.905L281.219 181.262H282.813L283.132 182ZM281.42 180.798L282.016 179.404L282.618 180.798H281.42ZM285.893 178.621V179.869C285.701 179.646 285.424 179.541 285.109 179.541C284.403 179.541 283.88 180.028 283.88 180.784C283.88 181.54 284.403 182.032 285.109 182.032C285.442 182.032 285.724 181.918 285.915 181.686V182H286.462V178.621H285.893ZM285.178 181.545C284.768 181.545 284.454 181.249 284.454 180.784C284.454 180.32 284.768 180.023 285.178 180.023C285.587 180.023 285.902 180.32 285.902 180.784C285.902 181.249 285.587 181.545 285.178 181.545ZM289.019 178.621V179.869C288.828 179.646 288.55 179.541 288.236 179.541C287.53 179.541 287.006 180.028 287.006 180.784C287.006 181.54 287.53 182.032 288.236 182.032C288.568 182.032 288.851 181.918 289.042 181.686V182H289.588V178.621H289.019ZM288.304 181.545C287.894 181.545 287.58 181.249 287.58 180.784C287.58 180.32 287.894 180.023 288.304 180.023C288.714 180.023 289.028 180.32 289.028 180.784C289.028 181.249 288.714 181.545 288.304 181.545ZM295.135 182L295.13 178.812H294.643L293.4 180.925L292.134 178.812H291.646V182H292.211V179.914L293.259 181.636H293.523L294.57 179.887L294.575 182H295.135ZM298.228 180.798C298.228 180.037 297.708 179.541 296.998 179.541C296.274 179.541 295.741 180.06 295.741 180.784C295.741 181.508 296.269 182.032 297.084 182.032C297.503 182.032 297.845 181.895 298.064 181.636L297.758 181.285C297.585 181.463 297.371 181.549 297.098 181.549C296.675 181.549 296.379 181.321 296.31 180.966H298.218C298.223 180.912 298.228 180.843 298.228 180.798ZM296.998 179.996C297.371 179.996 297.64 180.238 297.686 180.588H296.306C296.36 180.233 296.629 179.996 296.998 179.996ZM301.844 179.541C301.457 179.541 301.129 179.696 300.933 179.946C300.764 179.673 300.468 179.541 300.113 179.541C299.781 179.541 299.498 179.659 299.316 179.878V179.568H298.774V182H299.344V180.766C299.344 180.283 299.599 180.037 299.977 180.037C300.323 180.037 300.523 180.247 300.523 180.679V182H301.092V180.766C301.092 180.283 301.352 180.037 301.725 180.037C302.072 180.037 302.272 180.247 302.272 180.679V182H302.841V180.606C302.841 179.873 302.431 179.541 301.844 179.541ZM304.917 179.541C304.607 179.541 304.334 179.646 304.138 179.864V178.621H303.569V182H304.111V181.686C304.302 181.918 304.584 182.032 304.917 182.032C305.627 182.032 306.151 181.54 306.151 180.784C306.151 180.028 305.627 179.541 304.917 179.541ZM304.853 181.545C304.443 181.545 304.129 181.249 304.129 180.784C304.129 180.32 304.443 180.023 304.853 180.023C305.263 180.023 305.572 180.32 305.572 180.784C305.572 181.249 305.263 181.545 304.853 181.545ZM308.977 180.798C308.977 180.037 308.458 179.541 307.747 179.541C307.023 179.541 306.49 180.06 306.49 180.784C306.49 181.508 307.019 182.032 307.834 182.032C308.253 182.032 308.594 181.895 308.813 181.636L308.508 181.285C308.335 181.463 308.121 181.549 307.847 181.549C307.424 181.549 307.128 181.321 307.06 180.966H308.968C308.972 180.912 308.977 180.843 308.977 180.798ZM307.747 179.996C308.121 179.996 308.389 180.238 308.435 180.588H307.055C307.11 180.233 307.378 179.996 307.747 179.996ZM310.066 179.923V179.568H309.524V182H310.093V180.82C310.093 180.324 310.366 180.069 310.799 180.069C310.84 180.069 310.881 180.074 310.931 180.083V179.541C310.526 179.541 310.23 179.668 310.066 179.923Z" fill="white"></path></g><path d="M275.787 119.759C275.503 119.759 275.242 119.714 275.003 119.625C274.767 119.533 274.56 119.403 274.382 119.236C274.207 119.068 274.071 118.871 273.972 118.646C273.876 118.42 273.828 118.172 273.828 117.902C273.828 117.632 273.876 117.384 273.972 117.158C274.071 116.932 274.209 116.736 274.387 116.568C274.565 116.401 274.773 116.273 275.013 116.184C275.252 116.091 275.515 116.045 275.803 116.045C276.121 116.045 276.406 116.098 276.659 116.204C276.916 116.31 277.131 116.464 277.306 116.666L276.772 117.158C276.642 117.021 276.5 116.921 276.346 116.856C276.193 116.787 276.025 116.753 275.844 116.753C275.669 116.753 275.51 116.78 275.367 116.835C275.223 116.89 275.098 116.968 274.992 117.071C274.89 117.174 274.809 117.295 274.751 117.435C274.696 117.575 274.669 117.731 274.669 117.902C274.669 118.069 274.696 118.223 274.751 118.364C274.809 118.504 274.89 118.627 274.992 118.733C275.098 118.835 275.221 118.914 275.362 118.969C275.505 119.024 275.662 119.051 275.833 119.051C275.998 119.051 276.157 119.025 276.31 118.974C276.468 118.919 276.62 118.829 276.767 118.702L277.239 119.302C277.044 119.449 276.817 119.562 276.557 119.641C276.3 119.719 276.044 119.759 275.787 119.759ZM276.48 119.194V117.845H277.239V119.302L276.48 119.194Z" fill="white"></path><rect x="213.819" y="216.334" width="104.53" height="66.064" fill="white"></rect><rect x="213.819" y="221.405" width="14.1239" height="14.0763" rx="7.03816" fill="#E9F7EF"></rect><path d="M221.124 228.597H219.91L219.904 227.998H220.964C221.143 227.998 221.295 227.972 221.419 227.92C221.546 227.865 221.642 227.788 221.707 227.687C221.773 227.585 221.805 227.462 221.805 227.317C221.805 227.158 221.775 227.028 221.714 226.928C221.653 226.828 221.559 226.754 221.432 226.709C221.308 226.663 221.148 226.64 220.954 226.64H220.159V230.751H219.337V225.985H220.954C221.216 225.985 221.45 226.01 221.655 226.061C221.862 226.111 222.038 226.189 222.182 226.296C222.328 226.401 222.438 226.534 222.512 226.696C222.589 226.857 222.627 227.049 222.627 227.272C222.627 227.468 222.58 227.648 222.486 227.812C222.392 227.973 222.254 228.105 222.07 228.208C221.887 228.31 221.659 228.372 221.386 228.391L221.124 228.597ZM221.088 230.751H219.651L220.021 230.1H221.088C221.274 230.1 221.429 230.069 221.553 230.008C221.678 229.945 221.77 229.859 221.832 229.75C221.895 229.638 221.926 229.508 221.926 229.36C221.926 229.205 221.899 229.071 221.845 228.957C221.79 228.842 221.704 228.753 221.586 228.692C221.468 228.629 221.314 228.597 221.124 228.597H220.201L220.208 227.998H221.409L221.596 228.224C221.858 228.233 222.073 228.291 222.241 228.398C222.411 228.505 222.537 228.643 222.62 228.813C222.703 228.984 222.745 229.167 222.745 229.363C222.745 229.667 222.678 229.921 222.545 230.126C222.414 230.331 222.225 230.487 221.979 230.594C221.732 230.699 221.435 230.751 221.088 230.751Z" fill="#179F51"></path><path d="M234.448 225.175H233.359L233.353 224.638H234.304C234.464 224.638 234.6 224.615 234.712 224.568C234.825 224.519 234.911 224.449 234.97 224.359C235.028 224.267 235.058 224.157 235.058 224.028C235.058 223.885 235.03 223.769 234.976 223.679C234.921 223.589 234.837 223.523 234.723 223.482C234.612 223.441 234.469 223.421 234.295 223.421H233.582V227.105H232.846V222.834H234.295C234.53 222.834 234.739 222.856 234.923 222.901C235.109 222.946 235.266 223.017 235.395 223.113C235.526 223.206 235.625 223.326 235.691 223.47C235.76 223.615 235.794 223.787 235.794 223.987C235.794 224.163 235.752 224.324 235.668 224.471C235.584 224.615 235.46 224.734 235.295 224.826C235.131 224.918 234.927 224.972 234.682 224.99L234.448 225.175ZM234.415 227.105H233.127L233.459 226.521H234.415C234.581 226.521 234.72 226.494 234.832 226.439C234.943 226.382 235.026 226.305 235.081 226.207C235.138 226.108 235.166 225.991 235.166 225.858C235.166 225.719 235.142 225.599 235.093 225.498C235.044 225.394 234.967 225.315 234.861 225.26C234.756 225.203 234.618 225.175 234.448 225.175H233.62L233.626 224.638H234.703L234.87 224.84C235.105 224.848 235.297 224.9 235.448 224.996C235.6 225.092 235.714 225.216 235.788 225.368C235.862 225.521 235.9 225.685 235.9 225.861C235.9 226.133 235.84 226.361 235.721 226.545C235.603 226.729 235.434 226.868 235.213 226.964C234.992 227.058 234.726 227.105 234.415 227.105ZM237.522 224.535V227.105H236.815V223.931H237.489L237.522 224.535ZM238.493 223.91L238.487 224.568C238.444 224.56 238.397 224.554 238.346 224.55C238.297 224.546 238.248 224.544 238.199 224.544C238.078 224.544 237.971 224.562 237.88 224.597C237.788 224.63 237.71 224.679 237.648 224.744C237.587 224.806 237.54 224.882 237.507 224.972C237.474 225.062 237.454 225.163 237.448 225.275L237.287 225.286C237.287 225.087 237.307 224.902 237.346 224.732C237.385 224.562 237.443 224.412 237.522 224.283C237.602 224.154 237.702 224.053 237.821 223.981C237.942 223.908 238.082 223.872 238.24 223.872C238.283 223.872 238.329 223.876 238.378 223.884C238.429 223.892 238.467 223.901 238.493 223.91ZM239.933 223.931V227.105H239.223V223.931H239.933ZM239.176 223.098C239.176 222.99 239.211 222.901 239.282 222.831C239.354 222.759 239.454 222.722 239.581 222.722C239.706 222.722 239.805 222.759 239.877 222.831C239.949 222.901 239.986 222.99 239.986 223.098C239.986 223.203 239.949 223.291 239.877 223.362C239.805 223.432 239.706 223.467 239.581 223.467C239.454 223.467 239.354 223.432 239.282 223.362C239.211 223.291 239.176 223.203 239.176 223.098ZM240.983 223.931H241.693V227.381C241.693 227.598 241.656 227.781 241.581 227.929C241.507 228.08 241.397 228.193 241.253 228.27C241.108 228.348 240.931 228.387 240.722 228.387C240.659 228.387 240.595 228.382 240.528 228.372C240.46 228.365 240.395 228.353 240.334 228.337L240.337 227.786C240.378 227.794 240.422 227.799 240.469 227.803C240.514 227.809 240.557 227.812 240.599 227.812C240.683 227.812 240.753 227.797 240.81 227.768C240.866 227.739 240.909 227.693 240.939 227.63C240.968 227.568 240.983 227.485 240.983 227.381V223.931ZM240.921 223.098C240.921 222.99 240.957 222.901 241.03 222.831C241.102 222.759 241.201 222.722 241.326 222.722C241.453 222.722 241.552 222.759 241.622 222.831C241.695 222.901 241.731 222.99 241.731 223.098C241.731 223.203 241.695 223.291 241.622 223.362C241.552 223.432 241.453 223.467 241.326 223.467C241.201 223.467 241.102 223.432 241.03 223.362C240.957 223.291 240.921 223.203 240.921 223.098ZM244.095 227.164C243.86 227.164 243.648 227.126 243.459 227.049C243.271 226.971 243.11 226.863 242.977 226.724C242.846 226.585 242.746 226.422 242.675 226.234C242.605 226.046 242.57 225.844 242.57 225.627V225.509C242.57 225.261 242.606 225.036 242.678 224.835C242.751 224.633 242.851 224.461 242.98 224.318C243.109 224.173 243.262 224.063 243.438 223.987C243.614 223.91 243.805 223.872 244.01 223.872C244.237 223.872 244.435 223.91 244.606 223.987C244.776 224.063 244.916 224.171 245.028 224.309C245.141 224.446 245.225 224.61 245.28 224.799C245.337 224.989 245.365 225.198 245.365 225.427V225.729H242.913V225.222H244.667V225.166C244.663 225.039 244.638 224.92 244.591 224.808C244.546 224.697 244.476 224.607 244.383 224.538C244.289 224.47 244.164 224.436 244.007 224.436C243.89 224.436 243.785 224.461 243.693 224.512C243.603 224.561 243.528 224.632 243.467 224.726C243.407 224.82 243.36 224.933 243.326 225.066C243.295 225.197 243.28 225.345 243.28 225.509V225.627C243.28 225.765 243.298 225.895 243.335 226.014C243.374 226.131 243.431 226.234 243.505 226.322C243.58 226.41 243.67 226.479 243.775 226.53C243.881 226.579 244.001 226.603 244.136 226.603C244.306 226.603 244.458 226.569 244.591 226.501C244.724 226.432 244.839 226.336 244.937 226.21L245.31 226.571C245.241 226.671 245.152 226.767 245.043 226.859C244.933 226.949 244.799 227.022 244.641 227.079C244.484 227.135 244.302 227.164 244.095 227.164ZM247.938 226.246C247.938 226.175 247.92 226.112 247.885 226.055C247.85 225.996 247.782 225.943 247.683 225.896C247.585 225.85 247.44 225.807 247.248 225.767C247.08 225.73 246.926 225.686 246.785 225.635C246.646 225.583 246.527 225.519 246.427 225.445C246.327 225.37 246.25 225.282 246.195 225.181C246.141 225.079 246.113 224.962 246.113 224.829C246.113 224.7 246.142 224.577 246.198 224.462C246.255 224.347 246.336 224.245 246.442 224.157C246.547 224.069 246.675 223.999 246.826 223.949C246.979 223.898 247.149 223.872 247.336 223.872C247.602 223.872 247.83 223.917 248.02 224.007C248.212 224.095 248.358 224.216 248.46 224.368C248.562 224.519 248.613 224.689 248.613 224.879H247.906C247.906 224.794 247.884 224.716 247.841 224.644C247.8 224.57 247.737 224.51 247.653 224.465C247.569 224.418 247.464 224.394 247.336 224.394C247.215 224.394 247.114 224.414 247.034 224.453C246.956 224.49 246.897 224.539 246.858 224.6C246.821 224.66 246.803 224.727 246.803 224.799C246.803 224.852 246.812 224.9 246.832 224.943C246.853 224.984 246.889 225.022 246.937 225.057C246.986 225.091 247.053 225.122 247.137 225.151C247.223 225.181 247.331 225.209 247.46 225.236C247.702 225.287 247.91 225.353 248.085 225.433C248.261 225.511 248.395 225.613 248.489 225.738C248.583 225.861 248.63 226.018 248.63 226.207C248.63 226.348 248.6 226.477 248.539 226.595C248.481 226.71 248.394 226.811 248.281 226.897C248.168 226.981 248.032 227.046 247.873 227.093C247.717 227.14 247.541 227.164 247.345 227.164C247.058 227.164 246.814 227.113 246.615 227.011C246.415 226.908 246.264 226.776 246.16 226.615C246.058 226.453 246.008 226.285 246.008 226.111H246.691C246.699 226.242 246.735 226.346 246.8 226.425C246.866 226.501 246.948 226.557 247.046 226.592C247.146 226.625 247.248 226.642 247.354 226.642C247.481 226.642 247.588 226.625 247.674 226.592C247.76 226.557 247.825 226.51 247.87 226.451C247.915 226.39 247.938 226.322 247.938 226.246ZM250.188 222.599V227.105H249.484V222.599H250.188ZM250.064 225.401L249.836 225.398C249.838 225.179 249.868 224.976 249.927 224.791C249.987 224.605 250.071 224.443 250.179 224.306C250.288 224.168 250.419 224.061 250.572 223.987C250.724 223.91 250.894 223.872 251.079 223.872C251.236 223.872 251.377 223.894 251.502 223.937C251.629 223.98 251.739 224.049 251.83 224.145C251.922 224.239 251.992 224.362 252.039 224.515C252.088 224.665 252.112 224.849 252.112 225.066V227.105H251.402V225.06C251.402 224.908 251.38 224.787 251.335 224.697C251.292 224.607 251.228 224.542 251.144 224.503C251.06 224.462 250.957 224.441 250.836 224.441C250.709 224.441 250.596 224.467 250.499 224.518C250.403 224.569 250.323 224.638 250.258 224.726C250.194 224.814 250.145 224.916 250.111 225.031C250.08 225.146 250.064 225.27 250.064 225.401Z" fill="#6B6B6B"></path><path opacity="0.5" d="M235.024 232.822V233.355H232.574V232.822H235.024ZM234.086 231.82V234.423H233.514V231.82H234.086ZM236.091 234.315H236.14C236.366 234.315 236.555 234.285 236.705 234.226C236.857 234.166 236.978 234.082 237.068 233.976C237.159 233.869 237.223 233.744 237.262 233.6C237.302 233.456 237.321 233.3 237.321 233.131V232.515C237.321 232.369 237.306 232.242 237.275 232.132C237.245 232.021 237.203 231.928 237.147 231.855C237.093 231.779 237.03 231.723 236.958 231.685C236.888 231.648 236.812 231.629 236.73 231.629C236.64 231.629 236.559 231.649 236.487 231.69C236.416 231.729 236.357 231.784 236.307 231.855C236.26 231.923 236.223 232.004 236.197 232.098C236.172 232.189 236.16 232.288 236.16 232.392C236.16 232.49 236.172 232.585 236.195 232.677C236.219 232.767 236.255 232.847 236.303 232.918C236.35 232.988 236.41 233.044 236.482 233.085C236.554 233.126 236.638 233.146 236.735 233.146C236.826 233.146 236.911 233.129 236.987 233.094C237.064 233.058 237.131 233.01 237.189 232.95C237.246 232.889 237.291 232.821 237.324 232.746C237.357 232.671 237.375 232.594 237.378 232.515L237.604 232.584C237.604 232.708 237.577 232.831 237.525 232.952C237.474 233.072 237.403 233.181 237.312 233.281C237.222 233.379 237.116 233.458 236.995 233.517C236.875 233.576 236.745 233.605 236.604 233.605C236.434 233.605 236.284 233.573 236.153 233.509C236.023 233.444 235.915 233.355 235.829 233.244C235.744 233.133 235.68 233.005 235.637 232.861C235.595 232.717 235.573 232.566 235.573 232.407C235.573 232.235 235.6 232.074 235.652 231.923C235.704 231.773 235.78 231.64 235.88 231.526C235.98 231.409 236.101 231.319 236.244 231.256C236.388 231.19 236.55 231.157 236.732 231.157C236.925 231.157 237.095 231.195 237.24 231.27C237.386 231.346 237.509 231.45 237.609 231.582C237.708 231.715 237.784 231.869 237.834 232.044C237.885 232.219 237.911 232.407 237.911 232.608V232.817C237.911 233.028 237.892 233.232 237.854 233.428C237.816 233.623 237.755 233.804 237.67 233.971C237.586 234.136 237.476 234.282 237.339 234.408C237.203 234.532 237.036 234.63 236.838 234.7C236.641 234.769 236.411 234.803 236.145 234.803H236.091V234.315ZM240.228 231.194V234.781H239.636V231.896L238.76 232.193V231.705L240.157 231.194H240.228ZM243.564 231.207L244.322 232.51L245.081 231.207H245.79L244.71 232.977L245.817 234.781H245.1L244.322 233.453L243.544 234.781H242.825L243.934 232.977L242.852 231.207H243.564ZM246.88 231.207L247.639 232.51L248.397 231.207H249.107L248.027 232.977L249.134 234.781H248.417L247.639 233.453L246.86 234.781H246.141L247.251 232.977L246.168 231.207H246.88ZM250.196 231.207L250.955 232.51L251.714 231.207H252.423L251.343 232.977L252.45 234.781H251.733L250.955 233.453L250.177 234.781H249.458L250.567 232.977L249.485 231.207H250.196ZM253.513 231.207L254.271 232.51L255.03 231.207H255.74L254.659 232.977L255.767 234.781H255.05L254.271 233.453L253.493 234.781H252.774L253.884 232.977L252.801 231.207H253.513ZM258.221 231.207L258.98 232.51L259.738 231.207H260.448L259.368 232.977L260.475 234.781H259.758L258.98 233.453L258.201 234.781H257.482L258.592 232.977L257.509 231.207H258.221ZM261.537 231.207L262.296 232.51L263.055 231.207H263.764L262.684 232.977L263.791 234.781H263.074L262.296 233.453L261.518 234.781H260.799L261.908 232.977L260.826 231.207H261.537ZM264.854 231.207L265.613 232.51L266.371 231.207H267.081L266 232.977L267.108 234.781H266.391L265.613 233.453L264.834 234.781H264.115L265.225 232.977L264.142 231.207H264.854Z" fill="#6B6B6B"></path><rect x="213.819" y="246.857" width="14.1239" height="14.0763" rx="7.03816" fill="#E7F2F9"></rect><path d="M220.159 251.437V256.203H219.337V251.437H220.159ZM223.023 251.437L221.092 253.732L219.992 254.897L219.848 254.082L220.633 253.113L222.021 251.437H223.023ZM222.139 256.203L220.571 253.945L221.138 253.385L223.115 256.203H222.139Z" fill="#137AC6"></path><path d="M233.582 248.286V252.557H232.846V248.286H233.582ZM236.149 248.286L234.418 250.342L233.433 251.387L233.303 250.656L234.007 249.788L235.251 248.286H236.149ZM235.357 252.557L233.952 250.533L234.459 250.031L236.231 252.557H235.357ZM238.601 251.921V250.407C238.601 250.293 238.581 250.196 238.54 250.113C238.499 250.031 238.436 249.968 238.352 249.923C238.27 249.878 238.166 249.855 238.041 249.855C237.926 249.855 237.826 249.875 237.742 249.914C237.658 249.953 237.592 250.006 237.545 250.072C237.498 250.139 237.475 250.214 237.475 250.298H236.771C236.771 250.173 236.801 250.052 236.862 249.935C236.922 249.817 237.01 249.713 237.126 249.621C237.241 249.529 237.379 249.456 237.539 249.404C237.7 249.351 237.88 249.324 238.079 249.324C238.318 249.324 238.529 249.364 238.713 249.445C238.898 249.525 239.044 249.646 239.15 249.808C239.257 249.969 239.311 250.17 239.311 250.413V251.824C239.311 251.968 239.321 252.099 239.34 252.214C239.362 252.327 239.392 252.426 239.431 252.51V252.557H238.707C238.674 252.481 238.647 252.384 238.628 252.267C238.61 252.147 238.601 252.032 238.601 251.921ZM238.704 250.627L238.71 251.064H238.202C238.071 251.064 237.956 251.077 237.856 251.102C237.756 251.126 237.673 251.161 237.607 251.208C237.54 251.255 237.49 251.311 237.457 251.378C237.424 251.444 237.407 251.52 237.407 251.604C237.407 251.688 237.427 251.765 237.466 251.835C237.505 251.904 237.562 251.958 237.636 251.997C237.712 252.036 237.804 252.055 237.912 252.055C238.057 252.055 238.183 252.026 238.29 251.967C238.4 251.907 238.486 251.834 238.548 251.747C238.611 251.659 238.644 251.576 238.648 251.498L238.877 251.812C238.854 251.892 238.813 251.978 238.757 252.07C238.7 252.162 238.626 252.25 238.534 252.334C238.444 252.416 238.335 252.484 238.208 252.537C238.083 252.589 237.938 252.616 237.774 252.616C237.567 252.616 237.382 252.575 237.22 252.493C237.057 252.408 236.93 252.296 236.838 252.155C236.746 252.012 236.7 251.851 236.7 251.671C236.7 251.503 236.732 251.354 236.794 251.225C236.859 251.094 236.953 250.985 237.076 250.897C237.201 250.809 237.353 250.742 237.533 250.697C237.713 250.65 237.919 250.627 238.149 250.627H238.704ZM240.998 250.028V252.557H240.291V249.383H240.957L240.998 250.028ZM240.883 250.853L240.643 250.85C240.643 250.631 240.67 250.428 240.725 250.243C240.78 250.057 240.86 249.895 240.965 249.759C241.071 249.62 241.202 249.513 241.359 249.439C241.517 249.362 241.7 249.324 241.907 249.324C242.052 249.324 242.184 249.346 242.303 249.389C242.424 249.43 242.529 249.495 242.617 249.585C242.707 249.675 242.775 249.791 242.822 249.932C242.871 250.072 242.896 250.243 242.896 250.442V252.557H242.189V250.504C242.189 250.349 242.165 250.228 242.118 250.14C242.073 250.052 242.008 249.989 241.922 249.952C241.838 249.913 241.737 249.893 241.62 249.893C241.487 249.893 241.373 249.919 241.279 249.97C241.187 250.021 241.112 250.09 241.053 250.178C240.995 250.266 240.952 250.368 240.924 250.483C240.897 250.598 240.883 250.722 240.883 250.853ZM242.852 250.665L242.52 250.738C242.52 250.547 242.547 250.366 242.599 250.196C242.654 250.024 242.733 249.873 242.837 249.744C242.943 249.613 243.073 249.51 243.227 249.436C243.382 249.361 243.559 249.324 243.758 249.324C243.921 249.324 244.065 249.347 244.192 249.392C244.321 249.435 244.431 249.503 244.521 249.597C244.611 249.691 244.679 249.813 244.726 249.964C244.773 250.112 244.797 250.292 244.797 250.504V252.557H244.087V250.501C244.087 250.34 244.063 250.216 244.016 250.128C243.971 250.04 243.907 249.979 243.823 249.946C243.739 249.911 243.638 249.893 243.521 249.893C243.411 249.893 243.314 249.914 243.23 249.955C243.148 249.994 243.079 250.05 243.022 250.122C242.965 250.193 242.922 250.274 242.893 250.366C242.865 250.458 242.852 250.557 242.852 250.665ZM247.554 251.921V250.407C247.554 250.293 247.533 250.196 247.492 250.113C247.451 250.031 247.389 249.968 247.305 249.923C247.223 249.878 247.119 249.855 246.994 249.855C246.878 249.855 246.779 249.875 246.694 249.914C246.61 249.953 246.545 250.006 246.498 250.072C246.451 250.139 246.428 250.214 246.428 250.298H245.723C245.723 250.173 245.754 250.052 245.814 249.935C245.875 249.817 245.963 249.713 246.078 249.621C246.194 249.529 246.332 249.456 246.492 249.404C246.652 249.351 246.832 249.324 247.032 249.324C247.27 249.324 247.482 249.364 247.665 249.445C247.851 249.525 247.997 249.646 248.103 249.808C248.21 249.969 248.264 250.17 248.264 250.413V251.824C248.264 251.968 248.274 252.099 248.293 252.214C248.315 252.327 248.345 252.426 248.384 252.51V252.557H247.66C247.626 252.481 247.6 252.384 247.58 252.267C247.563 252.147 247.554 252.032 247.554 251.921ZM247.657 250.627L247.663 251.064H247.155C247.024 251.064 246.909 251.077 246.809 251.102C246.709 251.126 246.626 251.161 246.56 251.208C246.493 251.255 246.443 251.311 246.41 251.378C246.377 251.444 246.36 251.52 246.36 251.604C246.36 251.688 246.38 251.765 246.419 251.835C246.458 251.904 246.515 251.958 246.589 251.997C246.665 252.036 246.757 252.055 246.865 252.055C247.009 252.055 247.135 252.026 247.243 251.967C247.353 251.907 247.439 251.834 247.501 251.747C247.564 251.659 247.597 251.576 247.601 251.498L247.83 251.812C247.806 251.892 247.766 251.978 247.709 252.07C247.653 252.162 247.578 252.25 247.487 252.334C247.397 252.416 247.288 252.484 247.161 252.537C247.036 252.589 246.891 252.616 246.727 252.616C246.519 252.616 246.335 252.575 246.172 252.493C246.01 252.408 245.883 252.296 245.791 252.155C245.699 252.012 245.653 251.851 245.653 251.671C245.653 251.503 245.684 251.354 245.747 251.225C245.811 251.094 245.905 250.985 246.029 250.897C246.154 250.809 246.306 250.742 246.486 250.697C246.666 250.65 246.871 250.627 247.102 250.627H247.657ZM250 248.051V252.557H249.29V248.051H250ZM253.558 248.286V252.557H252.822V248.286H253.558ZM256.125 248.286L254.394 250.342L253.409 251.387L253.28 250.656L253.984 249.788L255.228 248.286H256.125ZM255.333 252.557L253.928 250.533L254.435 250.031L256.207 252.557H255.333ZM258.577 251.921V250.407C258.577 250.293 258.557 250.196 258.516 250.113C258.475 250.031 258.412 249.968 258.328 249.923C258.246 249.878 258.142 249.855 258.017 249.855C257.902 249.855 257.802 249.875 257.718 249.914C257.634 249.953 257.568 250.006 257.521 250.072C257.474 250.139 257.451 250.214 257.451 250.298H256.747C256.747 250.173 256.777 250.052 256.838 249.935C256.898 249.817 256.986 249.713 257.102 249.621C257.217 249.529 257.355 249.456 257.515 249.404C257.676 249.351 257.856 249.324 258.055 249.324C258.294 249.324 258.505 249.364 258.689 249.445C258.875 249.525 259.02 249.646 259.126 249.808C259.234 249.969 259.287 250.17 259.287 250.413V251.824C259.287 251.968 259.297 252.099 259.317 252.214C259.338 252.327 259.368 252.426 259.408 252.51V252.557H258.683C258.65 252.481 258.623 252.384 258.604 252.267C258.586 252.147 258.577 252.032 258.577 251.921ZM258.68 250.627L258.686 251.064H258.178C258.047 251.064 257.932 251.077 257.832 251.102C257.733 251.126 257.649 251.161 257.583 251.208C257.516 251.255 257.467 251.311 257.433 251.378C257.4 251.444 257.383 251.52 257.383 251.604C257.383 251.688 257.403 251.765 257.442 251.835C257.481 251.904 257.538 251.958 257.612 251.997C257.689 252.036 257.78 252.055 257.888 252.055C258.033 252.055 258.159 252.026 258.266 251.967C258.376 251.907 258.462 251.834 258.525 251.747C258.587 251.659 258.62 251.576 258.624 251.498L258.853 251.812C258.83 251.892 258.79 251.978 258.733 252.07C258.676 252.162 258.602 252.25 258.51 252.334C258.42 252.416 258.311 252.484 258.184 252.537C258.059 252.589 257.914 252.616 257.75 252.616C257.543 252.616 257.358 252.575 257.196 252.493C257.033 252.408 256.906 252.296 256.814 252.155C256.722 252.012 256.676 251.851 256.676 251.671C256.676 251.503 256.708 251.354 256.77 251.225C256.835 251.094 256.929 250.985 257.052 250.897C257.177 250.809 257.33 250.742 257.51 250.697C257.69 250.65 257.895 250.627 258.126 250.627H258.68ZM260.968 250.061V252.557H260.261V249.383H260.927L260.968 250.061ZM260.842 250.853L260.613 250.85C260.615 250.625 260.646 250.419 260.707 250.231C260.77 250.043 260.856 249.882 260.965 249.747C261.077 249.612 261.21 249.508 261.364 249.436C261.519 249.361 261.691 249.324 261.88 249.324C262.033 249.324 262.171 249.346 262.294 249.389C262.419 249.43 262.526 249.497 262.614 249.591C262.704 249.685 262.772 249.807 262.819 249.958C262.866 250.107 262.89 250.289 262.89 250.507V252.557H262.18V250.504C262.18 250.351 262.157 250.231 262.112 250.143C262.069 250.053 262.006 249.989 261.921 249.952C261.839 249.913 261.737 249.893 261.613 249.893C261.492 249.893 261.384 249.919 261.288 249.97C261.192 250.021 261.111 250.09 261.044 250.178C260.98 250.266 260.93 250.368 260.895 250.483C260.859 250.598 260.842 250.722 260.842 250.853ZM265.307 249.383V249.899H263.517V249.383H265.307ZM264.033 248.606H264.74V251.68C264.74 251.778 264.754 251.853 264.781 251.906C264.811 251.957 264.851 251.991 264.902 252.009C264.953 252.026 265.012 252.035 265.081 252.035C265.13 252.035 265.176 252.032 265.221 252.026C265.266 252.02 265.303 252.014 265.33 252.009L265.333 252.548C265.274 252.566 265.206 252.582 265.128 252.595C265.051 252.609 264.963 252.616 264.864 252.616C264.701 252.616 264.558 252.587 264.432 252.531C264.307 252.472 264.209 252.377 264.139 252.246C264.069 252.115 264.033 251.941 264.033 251.724V248.606Z" fill="#6B6B6B"></path><path opacity="0.5" d="M235.024 258.274V258.807H232.574V258.274H235.024ZM234.086 257.272V259.875H233.514V257.272H234.086ZM236.091 259.767H236.14C236.366 259.767 236.555 259.737 236.705 259.678C236.857 259.618 236.978 259.534 237.068 259.428C237.159 259.321 237.223 259.196 237.262 259.052C237.302 258.908 237.321 258.752 237.321 258.583V257.967C237.321 257.821 237.306 257.694 237.275 257.584C237.245 257.473 237.203 257.38 237.147 257.307C237.093 257.231 237.03 257.175 236.958 257.137C236.888 257.1 236.812 257.081 236.73 257.081C236.64 257.081 236.559 257.101 236.487 257.142C236.416 257.181 236.357 257.236 236.307 257.307C236.26 257.375 236.223 257.456 236.197 257.55C236.172 257.641 236.16 257.74 236.16 257.844C236.16 257.943 236.172 258.037 236.195 258.129C236.219 258.219 236.255 258.299 236.303 258.37C236.35 258.44 236.41 258.496 236.482 258.537C236.554 258.578 236.638 258.598 236.735 258.598C236.826 258.598 236.911 258.581 236.987 258.546C237.064 258.51 237.131 258.462 237.189 258.402C237.246 258.341 237.291 258.273 237.324 258.198C237.357 258.123 237.375 258.046 237.378 257.967L237.604 258.036C237.604 258.16 237.577 258.283 237.525 258.404C237.474 258.524 237.403 258.633 237.312 258.733C237.222 258.831 237.116 258.91 236.995 258.969C236.875 259.028 236.745 259.057 236.604 259.057C236.434 259.057 236.284 259.025 236.153 258.961C236.023 258.896 235.915 258.807 235.829 258.696C235.744 258.585 235.68 258.457 235.637 258.313C235.595 258.169 235.573 258.018 235.573 257.859C235.573 257.687 235.6 257.526 235.652 257.375C235.704 257.225 235.78 257.092 235.88 256.978C235.98 256.861 236.101 256.771 236.244 256.708C236.388 256.642 236.55 256.609 236.732 256.609C236.925 256.609 237.095 256.647 237.24 256.722C237.386 256.798 237.509 256.902 237.609 257.034C237.708 257.167 237.784 257.321 237.834 257.496C237.885 257.671 237.911 257.859 237.911 258.06V258.269C237.911 258.48 237.892 258.684 237.854 258.88C237.816 259.075 237.755 259.256 237.67 259.423C237.586 259.588 237.476 259.734 237.339 259.86C237.203 259.984 237.036 260.082 236.838 260.152C236.641 260.221 236.411 260.255 236.145 260.255H236.091V259.767ZM240.228 256.646V260.233H239.636V257.348L238.76 257.645V257.157L240.157 256.646H240.228ZM243.564 256.659L244.322 257.962L245.081 256.659H245.79L244.71 258.429L245.817 260.233H245.1L244.322 258.905L243.544 260.233H242.825L243.934 258.429L242.852 256.659H243.564ZM246.88 256.659L247.639 257.962L248.397 256.659H249.107L248.027 258.429L249.134 260.233H248.417L247.639 258.905L246.86 260.233H246.141L247.251 258.429L246.168 256.659H246.88ZM250.196 256.659L250.955 257.962L251.714 256.659H252.423L251.343 258.429L252.45 260.233H251.733L250.955 258.905L250.177 260.233H249.458L250.567 258.429L249.485 256.659H250.196ZM253.513 256.659L254.271 257.962L255.03 256.659H255.74L254.659 258.429L255.767 260.233H255.05L254.271 258.905L253.493 260.233H252.774L253.884 258.429L252.801 256.659H253.513ZM258.221 256.659L258.98 257.962L259.738 256.659H260.448L259.368 258.429L260.475 260.233H259.758L258.98 258.905L258.201 260.233H257.482L258.592 258.429L257.509 256.659H258.221ZM261.537 256.659L262.296 257.962L263.055 256.659H263.764L262.684 258.429L263.791 260.233H263.074L262.296 258.905L261.518 260.233H260.799L261.908 258.429L260.826 256.659H261.537ZM264.854 256.659L265.613 257.962L266.371 256.659H267.081L266 258.429L267.108 260.233H266.391L265.613 258.905L264.834 260.233H264.115L265.225 258.429L264.142 256.659H264.854Z" fill="#6B6B6B"></path><rect x="213.819" y="272.309" width="14.1239" height="14.0763" rx="7.03816" fill="#EEEDFA"></rect><path d="M221.845 280.428C221.845 280.33 221.829 280.242 221.799 280.166C221.77 280.09 221.719 280.02 221.645 279.957C221.571 279.893 221.466 279.832 221.331 279.773C221.198 279.712 221.027 279.65 220.82 279.587C220.593 279.517 220.384 279.439 220.192 279.354C220.002 279.267 219.836 279.167 219.694 279.053C219.552 278.937 219.442 278.805 219.363 278.657C219.285 278.506 219.246 278.333 219.246 278.137C219.246 277.942 219.286 277.766 219.367 277.606C219.45 277.447 219.566 277.31 219.717 277.194C219.87 277.076 220.05 276.985 220.257 276.922C220.464 276.857 220.693 276.824 220.944 276.824C221.298 276.824 221.602 276.889 221.858 277.02C222.115 277.151 222.313 277.327 222.45 277.547C222.59 277.768 222.66 278.011 222.66 278.277H221.845C221.845 278.12 221.811 277.982 221.743 277.862C221.678 277.739 221.577 277.643 221.442 277.574C221.309 277.504 221.14 277.469 220.935 277.469C220.74 277.469 220.579 277.498 220.45 277.557C220.321 277.616 220.225 277.696 220.162 277.796C220.099 277.897 220.067 278.01 220.067 278.137C220.067 278.226 220.088 278.308 220.129 278.382C220.171 278.454 220.234 278.522 220.319 278.585C220.404 278.646 220.511 278.704 220.64 278.758C220.769 278.813 220.92 278.865 221.095 278.916C221.359 278.994 221.589 279.081 221.786 279.177C221.982 279.271 222.146 279.378 222.277 279.498C222.408 279.618 222.506 279.755 222.571 279.907C222.637 280.058 222.669 280.229 222.669 280.421C222.669 280.622 222.629 280.803 222.548 280.965C222.468 281.124 222.352 281.26 222.201 281.374C222.053 281.485 221.874 281.571 221.665 281.632C221.457 281.691 221.226 281.721 220.971 281.721C220.741 281.721 220.516 281.69 220.293 281.629C220.073 281.568 219.872 281.475 219.691 281.351C219.51 281.224 219.366 281.067 219.259 280.88C219.152 280.69 219.098 280.468 219.098 280.215H219.92C219.92 280.37 219.946 280.502 219.998 280.611C220.053 280.72 220.128 280.81 220.224 280.88C220.32 280.947 220.432 280.997 220.558 281.03C220.687 281.063 220.824 281.079 220.971 281.079C221.163 281.079 221.323 281.052 221.452 280.997C221.583 280.943 221.681 280.867 221.746 280.768C221.812 280.67 221.845 280.557 221.845 280.428Z" fill="#4B46B9"></path><path d="M235.093 276.909C235.093 276.821 235.079 276.743 235.052 276.674C235.026 276.606 234.98 276.543 234.914 276.487C234.847 276.43 234.754 276.375 234.632 276.322C234.513 276.268 234.36 276.212 234.175 276.155C233.971 276.093 233.784 276.023 233.611 275.947C233.441 275.869 233.293 275.779 233.166 275.677C233.038 275.573 232.94 275.455 232.869 275.322C232.799 275.187 232.764 275.032 232.764 274.856C232.764 274.682 232.8 274.523 232.872 274.38C232.947 274.238 233.051 274.114 233.186 274.011C233.323 273.905 233.484 273.824 233.67 273.767C233.856 273.709 234.061 273.679 234.286 273.679C234.603 273.679 234.876 273.738 235.105 273.855C235.335 273.973 235.512 274.13 235.636 274.328C235.761 274.525 235.823 274.743 235.823 274.982H235.093C235.093 274.841 235.063 274.717 235.002 274.609C234.943 274.5 234.853 274.414 234.732 274.351C234.613 274.288 234.461 274.257 234.277 274.257C234.103 274.257 233.959 274.284 233.843 274.336C233.728 274.389 233.642 274.461 233.585 274.55C233.528 274.64 233.5 274.742 233.5 274.856C233.5 274.936 233.519 275.009 233.556 275.076C233.593 275.14 233.65 275.201 233.726 275.257C233.802 275.312 233.898 275.364 234.013 275.413C234.129 275.462 234.265 275.509 234.421 275.554C234.658 275.624 234.864 275.702 235.04 275.788C235.216 275.873 235.363 275.968 235.48 276.076C235.597 276.183 235.685 276.306 235.744 276.443C235.803 276.578 235.832 276.731 235.832 276.903C235.832 277.083 235.796 277.245 235.724 277.39C235.651 277.533 235.548 277.655 235.413 277.757C235.28 277.857 235.119 277.934 234.932 277.989C234.746 278.041 234.538 278.068 234.31 278.068C234.104 278.068 233.902 278.04 233.702 277.986C233.505 277.931 233.325 277.848 233.163 277.736C233 277.623 232.871 277.482 232.775 277.314C232.68 277.144 232.632 276.945 232.632 276.718H233.368C233.368 276.857 233.391 276.976 233.438 277.073C233.487 277.171 233.555 277.251 233.641 277.314C233.727 277.375 233.827 277.42 233.94 277.449C234.055 277.478 234.179 277.493 234.31 277.493C234.482 277.493 234.625 277.468 234.741 277.42C234.858 277.371 234.946 277.302 235.005 277.214C235.064 277.126 235.093 277.024 235.093 276.909ZM238.443 277.373V275.859C238.443 275.745 238.422 275.648 238.381 275.565C238.34 275.483 238.278 275.42 238.193 275.375C238.111 275.33 238.008 275.307 237.882 275.307C237.767 275.307 237.667 275.327 237.583 275.366C237.499 275.405 237.434 275.458 237.387 275.524C237.34 275.591 237.316 275.666 237.316 275.75H236.612C236.612 275.625 236.643 275.504 236.703 275.387C236.764 275.269 236.852 275.165 236.967 275.073C237.083 274.981 237.22 274.908 237.381 274.856C237.541 274.803 237.721 274.776 237.921 274.776C238.159 274.776 238.37 274.816 238.554 274.897C238.74 274.977 238.886 275.098 238.991 275.26C239.099 275.421 239.153 275.622 239.153 275.865V277.276C239.153 277.42 239.163 277.551 239.182 277.666C239.204 277.779 239.234 277.878 239.273 277.962V278.009H238.548C238.515 277.933 238.489 277.836 238.469 277.719C238.452 277.599 238.443 277.484 238.443 277.373ZM238.545 276.079L238.551 276.516H238.044C237.913 276.516 237.797 276.529 237.698 276.554C237.598 276.578 237.515 276.613 237.448 276.66C237.382 276.707 237.332 276.763 237.299 276.83C237.265 276.896 237.249 276.972 237.249 277.056C237.249 277.14 237.268 277.217 237.308 277.287C237.347 277.356 237.403 277.41 237.478 277.449C237.554 277.488 237.646 277.508 237.753 277.508C237.898 277.508 238.024 277.478 238.132 277.42C238.241 277.359 238.327 277.286 238.39 277.199C238.453 277.111 238.486 277.028 238.49 276.95L238.719 277.264C238.695 277.344 238.655 277.43 238.598 277.522C238.542 277.614 238.467 277.702 238.375 277.786C238.285 277.868 238.177 277.936 238.05 277.989C237.925 278.041 237.78 278.068 237.616 278.068C237.408 278.068 237.223 278.027 237.061 277.945C236.899 277.861 236.772 277.748 236.68 277.607C236.588 277.464 236.542 277.303 236.542 277.123C236.542 276.955 236.573 276.806 236.636 276.677C236.7 276.546 236.794 276.437 236.917 276.349C237.043 276.261 237.195 276.194 237.375 276.149C237.555 276.102 237.76 276.079 237.991 276.079H238.545ZM240.889 274.835V278.009H240.179V274.835H240.889ZM240.132 274.002C240.132 273.894 240.168 273.805 240.238 273.735C240.31 273.663 240.41 273.626 240.537 273.626C240.662 273.626 240.761 273.663 240.833 273.735C240.906 273.805 240.942 273.894 240.942 274.002C240.942 274.108 240.906 274.196 240.833 274.266C240.761 274.336 240.662 274.372 240.537 274.372C240.41 274.372 240.31 274.336 240.238 274.266C240.168 274.196 240.132 274.108 240.132 274.002ZM242.86 278.009H242.153V274.53C242.153 274.293 242.197 274.095 242.285 273.934C242.375 273.772 242.503 273.65 242.67 273.568C242.836 273.484 243.032 273.442 243.259 273.442C243.33 273.442 243.399 273.446 243.468 273.456C243.536 273.464 243.602 273.477 243.667 273.494L243.649 274.04C243.61 274.03 243.567 274.023 243.52 274.02C243.475 274.016 243.426 274.014 243.374 274.014C243.266 274.014 243.173 274.034 243.095 274.075C243.019 274.114 242.96 274.172 242.919 274.248C242.88 274.325 242.86 274.418 242.86 274.53V278.009ZM243.514 274.835V275.351H241.666V274.835H243.514Z" fill="#6B6B6B"></path><path opacity="0.5" d="M235.024 283.726V284.259H232.574V283.726H235.024ZM234.086 282.724V285.327H233.514V282.724H234.086ZM236.091 285.219H236.14C236.366 285.219 236.555 285.189 236.705 285.13C236.857 285.07 236.978 284.986 237.068 284.88C237.159 284.773 237.223 284.648 237.262 284.504C237.302 284.36 237.321 284.204 237.321 284.035V283.419C237.321 283.273 237.306 283.146 237.275 283.036C237.245 282.925 237.203 282.832 237.147 282.759C237.093 282.683 237.03 282.627 236.958 282.589C236.888 282.552 236.812 282.533 236.73 282.533C236.64 282.533 236.559 282.553 236.487 282.594C236.416 282.633 236.357 282.688 236.307 282.759C236.26 282.827 236.223 282.908 236.197 283.002C236.172 283.093 236.16 283.192 236.16 283.296C236.16 283.395 236.172 283.489 236.195 283.581C236.219 283.671 236.255 283.751 236.303 283.822C236.35 283.892 236.41 283.948 236.482 283.989C236.554 284.03 236.638 284.05 236.735 284.05C236.826 284.05 236.911 284.033 236.987 283.998C237.064 283.962 237.131 283.914 237.189 283.854C237.246 283.793 237.291 283.725 237.324 283.65C237.357 283.575 237.375 283.498 237.378 283.419L237.604 283.488C237.604 283.612 237.577 283.735 237.525 283.856C237.474 283.976 237.403 284.085 237.312 284.185C237.222 284.283 237.116 284.362 236.995 284.421C236.875 284.48 236.745 284.509 236.604 284.509C236.434 284.509 236.284 284.477 236.153 284.413C236.023 284.348 235.915 284.26 235.829 284.148C235.744 284.037 235.68 283.909 235.637 283.765C235.595 283.621 235.573 283.47 235.573 283.311C235.573 283.139 235.6 282.978 235.652 282.827C235.704 282.677 235.78 282.544 235.88 282.43C235.98 282.314 236.101 282.224 236.244 282.16C236.388 282.094 236.55 282.061 236.732 282.061C236.925 282.061 237.095 282.099 237.24 282.174C237.386 282.25 237.509 282.354 237.609 282.486C237.708 282.619 237.784 282.773 237.834 282.948C237.885 283.123 237.911 283.311 237.911 283.512V283.721C237.911 283.932 237.892 284.136 237.854 284.332C237.816 284.527 237.755 284.708 237.67 284.875C237.586 285.04 237.476 285.186 237.339 285.312C237.203 285.436 237.036 285.534 236.838 285.604C236.641 285.673 236.411 285.707 236.145 285.707H236.091V285.219ZM240.228 282.098V285.685H239.636V282.8L238.76 283.097V282.609L240.157 282.098H240.228ZM243.564 282.111L244.322 283.414L245.081 282.111H245.79L244.71 283.881L245.817 285.685H245.1L244.322 284.357L243.544 285.685H242.825L243.934 283.881L242.852 282.111H243.564ZM246.88 282.111L247.639 283.414L248.397 282.111H249.107L248.027 283.881L249.134 285.685H248.417L247.639 284.357L246.86 285.685H246.141L247.251 283.881L246.168 282.111H246.88ZM250.196 282.111L250.955 283.414L251.714 282.111H252.423L251.343 283.881L252.45 285.685H251.733L250.955 284.357L250.177 285.685H249.458L250.567 283.881L249.485 282.111H250.196ZM253.513 282.111L254.271 283.414L255.03 282.111H255.74L254.659 283.881L255.767 285.685H255.05L254.271 284.357L253.493 285.685H252.774L253.884 283.881L252.801 282.111H253.513ZM258.221 282.111L258.98 283.414L259.738 282.111H260.448L259.368 283.881L260.475 285.685H259.758L258.98 284.357L258.201 285.685H257.482L258.592 283.881L257.509 282.111H258.221ZM261.537 282.111L262.296 283.414L263.055 282.111H263.764L262.684 283.881L263.791 285.685H263.074L262.296 284.357L261.518 285.685H260.799L261.908 283.881L260.826 282.111H261.537ZM264.854 282.111L265.613 283.414L266.371 282.111H267.081L266 283.881L267.108 285.685H266.391L265.613 284.357L264.834 285.685H264.115L265.225 283.881L264.142 282.111H264.854Z" fill="#6B6B6B"></path><g filter="url(#filter0_d_81_1057)"><rect x="288.751" y="215.782" width="51.1456" height="20.5515" rx="3.01103" fill="#E9F7EF" shape-rendering="crispEdges"></rect><path d="M303.478 223.991L301.559 229.557H300.399L302.816 223.136H303.557L303.478 223.991ZM305.083 229.557L303.16 223.991L303.076 223.136H303.822L306.248 229.557H305.083ZM304.991 227.176V228.053H301.497V227.176H304.991ZM310.073 228.57V222.783H311.14V229.557H310.174L310.073 228.57ZM306.968 227.224V227.132C306.968 226.77 307.011 226.441 307.096 226.144C307.181 225.844 307.305 225.586 307.466 225.372C307.628 225.154 307.825 224.988 308.057 224.873C308.29 224.756 308.551 224.697 308.842 224.697C309.131 224.697 309.383 224.753 309.601 224.865C309.819 224.976 310.004 225.137 310.157 225.345C310.31 225.551 310.432 225.798 310.523 226.086C310.614 226.372 310.679 226.689 310.717 227.039V227.335C310.679 227.676 310.614 227.987 310.523 228.27C310.432 228.552 310.31 228.796 310.157 229.002C310.004 229.208 309.817 229.366 309.597 229.478C309.379 229.59 309.125 229.646 308.834 229.646C308.545 229.646 308.285 229.585 308.053 229.465C307.824 229.344 307.628 229.175 307.466 228.958C307.305 228.74 307.181 228.484 307.096 228.19C307.011 227.893 306.968 227.571 306.968 227.224ZM308.031 227.132V227.224C308.031 227.442 308.05 227.645 308.088 227.833C308.129 228.021 308.193 228.187 308.278 228.331C308.363 228.472 308.473 228.584 308.609 228.667C308.747 228.746 308.912 228.786 309.103 228.786C309.344 228.786 309.542 228.733 309.698 228.627C309.854 228.521 309.976 228.378 310.064 228.199C310.155 228.017 310.217 227.814 310.249 227.59V226.792C310.232 226.619 310.195 226.457 310.139 226.307C310.086 226.157 310.014 226.026 309.923 225.914C309.832 225.8 309.719 225.711 309.583 225.65C309.451 225.585 309.294 225.553 309.111 225.553C308.917 225.553 308.753 225.594 308.617 225.676C308.482 225.758 308.37 225.872 308.282 226.016C308.197 226.16 308.134 226.327 308.093 226.519C308.051 226.71 308.031 226.914 308.031 227.132ZM313.616 225.755V229.557H312.553V224.785H313.554L313.616 225.755ZM313.444 226.995L313.082 226.99C313.082 226.661 313.123 226.357 313.206 226.077C313.288 225.798 313.409 225.556 313.567 225.35C313.726 225.141 313.923 224.981 314.158 224.869C314.397 224.754 314.672 224.697 314.983 224.697C315.201 224.697 315.399 224.729 315.579 224.794C315.761 224.856 315.918 224.954 316.051 225.089C316.186 225.225 316.289 225.398 316.359 225.61C316.433 225.822 316.47 226.077 316.47 226.377V229.557H315.407V226.47C315.407 226.238 315.371 226.055 315.301 225.923C315.233 225.791 315.135 225.697 315.005 225.641C314.879 225.582 314.727 225.553 314.551 225.553C314.351 225.553 314.181 225.591 314.039 225.667C313.901 225.744 313.788 225.848 313.7 225.98C313.612 226.113 313.547 226.266 313.506 226.439C313.465 226.613 313.444 226.798 313.444 226.995ZM316.404 226.713L315.905 226.823C315.905 226.535 315.945 226.263 316.024 226.007C316.107 225.748 316.226 225.522 316.381 225.328C316.54 225.131 316.736 224.976 316.968 224.865C317.2 224.753 317.466 224.697 317.766 224.697C318.01 224.697 318.228 224.731 318.419 224.798C318.613 224.863 318.778 224.966 318.913 225.107C319.048 225.248 319.151 225.432 319.222 225.658C319.293 225.882 319.328 226.152 319.328 226.47V229.557H318.26V226.466C318.26 226.224 318.225 226.038 318.155 225.905C318.087 225.773 317.99 225.682 317.863 225.632C317.737 225.579 317.586 225.553 317.409 225.553C317.244 225.553 317.099 225.583 316.972 225.645C316.849 225.704 316.745 225.788 316.659 225.897C316.574 226.002 316.509 226.125 316.465 226.263C316.424 226.401 316.404 226.551 316.404 226.713ZM321.861 224.785V229.557H320.793V224.785H321.861ZM320.723 223.533C320.723 223.371 320.776 223.237 320.882 223.131C320.99 223.022 321.14 222.968 321.331 222.968C321.52 222.968 321.668 223.022 321.777 223.131C321.886 223.237 321.94 223.371 321.94 223.533C321.94 223.691 321.886 223.824 321.777 223.929C321.668 224.035 321.52 224.088 321.331 224.088C321.14 224.088 320.99 224.035 320.882 223.929C320.776 223.824 320.723 223.691 320.723 223.533ZM324.38 225.804V229.557H323.317V224.785H324.319L324.38 225.804ZM324.191 226.995L323.847 226.99C323.85 226.652 323.897 226.342 323.988 226.06C324.082 225.778 324.211 225.535 324.376 225.332C324.544 225.129 324.744 224.973 324.976 224.865C325.208 224.753 325.467 224.697 325.752 224.697C325.981 224.697 326.189 224.729 326.374 224.794C326.562 224.856 326.722 224.957 326.855 225.098C326.99 225.239 327.093 225.423 327.164 225.65C327.234 225.873 327.269 226.148 327.269 226.474V229.557H326.202V226.47C326.202 226.241 326.168 226.06 326.101 225.928C326.036 225.792 325.94 225.697 325.814 225.641C325.69 225.582 325.536 225.553 325.351 225.553C325.168 225.553 325.005 225.591 324.861 225.667C324.717 225.744 324.595 225.848 324.495 225.98C324.398 226.113 324.323 226.266 324.27 226.439C324.217 226.613 324.191 226.798 324.191 226.995Z" fill="#127F41"></path></g><g filter="url(#filter1_d_81_1057)"><rect x="288.751" y="242.706" width="53.4039" height="20.5515" rx="3.01103" fill="#E7F2F9" shape-rendering="crispEdges"></rect><path d="M303.307 255.309L304.996 250.06H306.218L303.916 256.482H303.091L303.307 255.309ZM301.746 250.06L303.422 255.309L303.651 256.482H302.822L300.528 250.06H301.746ZM308.27 251.71V256.482H307.203V251.71H308.27ZM307.132 250.457C307.132 250.295 307.185 250.162 307.291 250.056C307.4 249.947 307.55 249.892 307.741 249.892C307.929 249.892 308.078 249.947 308.186 250.056C308.295 250.162 308.35 250.295 308.35 250.457C308.35 250.616 308.295 250.748 308.186 250.854C308.078 250.96 307.929 251.013 307.741 251.013C307.55 251.013 307.4 250.96 307.291 250.854C307.185 250.748 307.132 250.616 307.132 250.457ZM311.84 256.57C311.487 256.57 311.168 256.513 310.883 256.398C310.6 256.281 310.359 256.117 310.159 255.909C309.962 255.7 309.811 255.454 309.705 255.172C309.599 254.89 309.546 254.585 309.546 254.259V254.083C309.546 253.709 309.601 253.371 309.709 253.068C309.818 252.765 309.97 252.507 310.164 252.292C310.358 252.074 310.587 251.908 310.852 251.793C311.116 251.679 311.403 251.621 311.712 251.621C312.053 251.621 312.351 251.679 312.607 251.793C312.863 251.908 313.075 252.07 313.242 252.279C313.413 252.485 313.539 252.73 313.622 253.015C313.707 253.3 313.75 253.615 313.75 253.959V254.413H310.062V253.65H312.7V253.567C312.694 253.375 312.656 253.196 312.585 253.028C312.517 252.861 312.413 252.726 312.272 252.623C312.131 252.52 311.943 252.468 311.707 252.468C311.531 252.468 311.374 252.507 311.235 252.583C311.1 252.657 310.987 252.764 310.896 252.905C310.805 253.046 310.734 253.217 310.684 253.417C310.637 253.614 310.614 253.836 310.614 254.083V254.259C310.614 254.468 310.641 254.662 310.697 254.841C310.756 255.018 310.841 255.172 310.953 255.304C311.065 255.437 311.2 255.541 311.359 255.618C311.518 255.691 311.699 255.728 311.901 255.728C312.157 255.728 312.385 255.676 312.585 255.573C312.785 255.471 312.959 255.325 313.106 255.137L313.666 255.679C313.563 255.829 313.429 255.973 313.264 256.112C313.1 256.247 312.898 256.357 312.66 256.442C312.425 256.528 312.151 256.57 311.84 256.57ZM316.177 255.423L317.279 251.71H317.958L317.773 252.821L316.662 256.482H316.053L316.177 255.423ZM315.528 251.71L316.388 255.441L316.459 256.482H315.78L314.487 251.71H315.528ZM318.991 255.397L319.824 251.71H320.861L319.573 256.482H318.894L318.991 255.397ZM318.073 251.71L319.163 255.379L319.299 256.482H318.691L317.566 252.817L317.381 251.71H318.073ZM323.989 256.57C323.636 256.57 323.317 256.513 323.032 256.398C322.75 256.281 322.509 256.117 322.309 255.909C322.112 255.7 321.96 255.454 321.854 255.172C321.748 254.89 321.696 254.585 321.696 254.259V254.083C321.696 253.709 321.75 253.371 321.859 253.068C321.968 252.765 322.119 252.507 322.313 252.292C322.507 252.074 322.736 251.908 323.001 251.793C323.266 251.679 323.552 251.621 323.861 251.621C324.202 251.621 324.501 251.679 324.757 251.793C325.012 251.908 325.224 252.07 325.392 252.279C325.562 252.485 325.689 252.73 325.771 253.015C325.856 253.3 325.899 253.615 325.899 253.959V254.413H322.212V253.65H324.849V253.567C324.843 253.375 324.805 253.196 324.734 253.028C324.667 252.861 324.562 252.726 324.421 252.623C324.28 252.52 324.092 252.468 323.857 252.468C323.68 252.468 323.523 252.507 323.385 252.583C323.25 252.657 323.136 252.764 323.045 252.905C322.954 253.046 322.883 253.217 322.833 253.417C322.786 253.614 322.763 253.836 322.763 254.083V254.259C322.763 254.468 322.791 254.662 322.847 254.841C322.906 255.018 322.991 255.172 323.103 255.304C323.214 255.437 323.35 255.541 323.508 255.618C323.667 255.691 323.848 255.728 324.051 255.728C324.307 255.728 324.535 255.676 324.734 255.573C324.934 255.471 325.108 255.325 325.255 255.137L325.815 255.679C325.712 255.829 325.578 255.973 325.414 256.112C325.249 256.247 325.048 256.357 324.809 256.442C324.574 256.528 324.301 256.57 323.989 256.57ZM328.097 252.618V256.482H327.034V251.71H328.048L328.097 252.618ZM329.557 251.679L329.548 252.667C329.483 252.655 329.412 252.646 329.336 252.64C329.262 252.634 329.189 252.632 329.115 252.632C328.933 252.632 328.773 252.658 328.635 252.711C328.496 252.761 328.38 252.834 328.286 252.931C328.195 253.026 328.125 253.14 328.075 253.275C328.025 253.411 327.995 253.562 327.986 253.73L327.744 253.747C327.744 253.448 327.773 253.17 327.832 252.914C327.891 252.658 327.979 252.433 328.097 252.239C328.217 252.045 328.367 251.893 328.546 251.785C328.729 251.676 328.939 251.621 329.177 251.621C329.242 251.621 329.311 251.627 329.385 251.639C329.461 251.651 329.518 251.664 329.557 251.679Z" fill="#116EB2"></path></g><g filter="url(#filter2_d_81_1057)"><rect x="288.751" y="269.63" width="78.2375" height="20.5515" rx="3.01103" fill="#EEEDFA" shape-rendering="crispEdges"></rect><path d="M300.389 283.406H299.017L299.026 282.529H300.389C300.786 282.529 301.118 282.442 301.385 282.268C301.656 282.095 301.859 281.846 301.994 281.523C302.132 281.199 302.201 280.814 302.201 280.367V280.019C302.201 279.672 302.162 279.365 302.082 279.097C302.006 278.829 301.891 278.604 301.738 278.422C301.588 278.24 301.403 278.102 301.183 278.008C300.965 277.913 300.714 277.866 300.428 277.866H298.99V276.984H300.428C300.855 276.984 301.244 277.056 301.597 277.2C301.95 277.342 302.254 277.546 302.51 277.814C302.769 278.081 302.967 278.402 303.106 278.775C303.244 279.148 303.313 279.566 303.313 280.028V280.367C303.313 280.829 303.244 281.246 303.106 281.62C302.967 281.993 302.769 282.314 302.51 282.581C302.251 282.846 301.943 283.05 301.584 283.195C301.228 283.336 300.83 283.406 300.389 283.406ZM299.63 276.984V283.406H298.523V276.984H299.63ZM307.31 282.449V280.173C307.31 280.003 307.279 279.856 307.218 279.732C307.156 279.609 307.062 279.513 306.935 279.445C306.812 279.378 306.656 279.344 306.468 279.344C306.294 279.344 306.144 279.373 306.018 279.432C305.891 279.491 305.793 279.57 305.722 279.67C305.652 279.77 305.616 279.884 305.616 280.01H304.558C304.558 279.822 304.603 279.64 304.695 279.463C304.786 279.287 304.918 279.129 305.092 278.991C305.265 278.853 305.472 278.744 305.713 278.665C305.955 278.585 306.225 278.546 306.525 278.546C306.884 278.546 307.201 278.606 307.478 278.727C307.757 278.847 307.976 279.029 308.135 279.273C308.297 279.515 308.378 279.817 308.378 280.182V282.304C308.378 282.521 308.392 282.717 308.422 282.89C308.454 283.061 308.5 283.209 308.558 283.336V283.406H307.469C307.419 283.292 307.379 283.146 307.35 282.97C307.323 282.79 307.31 282.617 307.31 282.449ZM307.465 280.504L307.473 281.161H306.71C306.513 281.161 306.34 281.18 306.19 281.219C306.04 281.254 305.915 281.307 305.815 281.377C305.715 281.448 305.64 281.533 305.59 281.633C305.54 281.733 305.515 281.846 305.515 281.973C305.515 282.099 305.544 282.215 305.603 282.321C305.662 282.424 305.747 282.505 305.859 282.564C305.974 282.623 306.112 282.652 306.274 282.652C306.491 282.652 306.681 282.608 306.843 282.52C307.007 282.429 307.137 282.318 307.231 282.189C307.325 282.057 307.375 281.932 307.381 281.814L307.725 282.286C307.689 282.406 307.629 282.536 307.544 282.674C307.459 282.812 307.347 282.945 307.209 283.071C307.073 283.195 306.91 283.296 306.719 283.375C306.531 283.455 306.313 283.494 306.066 283.494C305.755 283.494 305.477 283.433 305.233 283.309C304.989 283.183 304.798 283.014 304.659 282.802C304.521 282.587 304.452 282.345 304.452 282.074C304.452 281.821 304.499 281.598 304.593 281.404C304.69 281.207 304.831 281.042 305.017 280.91C305.205 280.777 305.434 280.678 305.705 280.61C305.975 280.539 306.284 280.504 306.631 280.504H307.465ZM311.978 278.634V279.41H309.287V278.634H311.978ZM310.064 277.465H311.127V282.087C311.127 282.234 311.147 282.348 311.188 282.427C311.232 282.504 311.293 282.555 311.369 282.581C311.446 282.608 311.535 282.621 311.638 282.621C311.712 282.621 311.782 282.617 311.85 282.608C311.918 282.599 311.972 282.59 312.013 282.581L312.018 283.393C311.929 283.419 311.826 283.443 311.709 283.464C311.594 283.484 311.462 283.494 311.312 283.494C311.068 283.494 310.852 283.452 310.663 283.367C310.475 283.278 310.328 283.136 310.222 282.939C310.117 282.742 310.064 282.48 310.064 282.154V277.465ZM315.79 282.449V280.173C315.79 280.003 315.759 279.856 315.697 279.732C315.635 279.609 315.541 279.513 315.415 279.445C315.291 279.378 315.136 279.344 314.947 279.344C314.774 279.344 314.624 279.373 314.498 279.432C314.371 279.491 314.273 279.57 314.202 279.67C314.131 279.77 314.096 279.884 314.096 280.01H313.038C313.038 279.822 313.083 279.64 313.174 279.463C313.265 279.287 313.398 279.129 313.571 278.991C313.745 278.853 313.952 278.744 314.193 278.665C314.434 278.585 314.705 278.546 315.005 278.546C315.363 278.546 315.681 278.606 315.957 278.727C316.237 278.847 316.456 279.029 316.615 279.273C316.776 279.515 316.857 279.817 316.857 280.182V282.304C316.857 282.521 316.872 282.717 316.901 282.89C316.934 283.061 316.979 283.209 317.038 283.336V283.406H315.949C315.899 283.292 315.859 283.146 315.83 282.97C315.803 282.79 315.79 282.617 315.79 282.449ZM315.944 280.504L315.953 281.161H315.19C314.993 281.161 314.819 281.18 314.67 281.219C314.52 281.254 314.395 281.307 314.295 281.377C314.195 281.448 314.12 281.533 314.07 281.633C314.02 281.733 313.995 281.846 313.995 281.973C313.995 282.099 314.024 282.215 314.083 282.321C314.142 282.424 314.227 282.505 314.339 282.564C314.453 282.623 314.592 282.652 314.753 282.652C314.971 282.652 315.161 282.608 315.322 282.52C315.487 282.429 315.616 282.318 315.71 282.189C315.805 282.057 315.855 281.932 315.86 281.814L316.204 282.286C316.169 282.406 316.109 282.536 316.024 282.674C315.938 282.812 315.827 282.945 315.688 283.071C315.553 283.195 315.39 283.296 315.199 283.375C315.011 283.455 314.793 283.494 314.546 283.494C314.234 283.494 313.956 283.433 313.712 283.309C313.468 283.183 313.277 283.014 313.139 282.802C313.001 282.587 312.932 282.345 312.932 282.074C312.932 281.821 312.979 281.598 313.073 281.404C313.17 281.207 313.311 281.042 313.496 280.91C313.684 280.777 313.914 280.678 314.184 280.61C314.455 280.539 314.764 280.504 315.111 280.504H315.944ZM326.047 280.019V280.372C326.047 280.857 325.984 281.292 325.857 281.677C325.731 282.062 325.55 282.39 325.315 282.661C325.083 282.931 324.803 283.139 324.477 283.283C324.15 283.424 323.789 283.494 323.392 283.494C322.998 283.494 322.638 283.424 322.311 283.283C321.988 283.139 321.707 282.931 321.469 282.661C321.231 282.39 321.045 282.062 320.913 281.677C320.784 281.292 320.719 280.857 320.719 280.372V280.019C320.719 279.534 320.784 279.1 320.913 278.718C321.042 278.332 321.225 278.005 321.46 277.734C321.698 277.461 321.979 277.253 322.302 277.112C322.629 276.968 322.989 276.896 323.383 276.896C323.78 276.896 324.142 276.968 324.468 277.112C324.794 277.253 325.075 277.461 325.31 277.734C325.546 278.005 325.727 278.332 325.853 278.718C325.982 279.1 326.047 279.534 326.047 280.019ZM324.94 280.372V280.01C324.94 279.651 324.905 279.335 324.834 279.062C324.766 278.785 324.665 278.554 324.53 278.369C324.397 278.181 324.234 278.04 324.04 277.946C323.846 277.849 323.627 277.8 323.383 277.8C323.139 277.8 322.921 277.849 322.73 277.946C322.539 278.04 322.376 278.181 322.241 278.369C322.108 278.554 322.007 278.785 321.936 279.062C321.866 279.335 321.83 279.651 321.83 280.01V280.372C321.83 280.73 321.866 281.048 321.936 281.324C322.007 281.601 322.11 281.835 322.245 282.026C322.383 282.214 322.548 282.357 322.739 282.454C322.93 282.548 323.148 282.595 323.392 282.595C323.639 282.595 323.858 282.548 324.049 282.454C324.24 282.357 324.402 282.214 324.534 282.026C324.666 281.835 324.766 281.601 324.834 281.324C324.905 281.048 324.94 280.73 324.94 280.372ZM328.417 279.551V285.241H327.354V278.634H328.333L328.417 279.551ZM331.526 280.976V281.069C331.526 281.416 331.485 281.738 331.403 282.035C331.323 282.329 331.204 282.586 331.046 282.806C330.89 283.024 330.697 283.193 330.468 283.314C330.238 283.434 329.974 283.494 329.674 283.494C329.377 283.494 329.117 283.44 328.893 283.331C328.673 283.22 328.486 283.062 328.333 282.859C328.18 282.656 328.057 282.418 327.962 282.145C327.871 281.868 327.807 281.566 327.768 281.236V280.879C327.807 280.529 327.871 280.211 327.962 279.926C328.057 279.641 328.18 279.395 328.333 279.19C328.486 278.984 328.673 278.825 328.893 278.713C329.114 278.602 329.371 278.546 329.665 278.546C329.965 278.546 330.231 278.604 330.463 278.722C330.696 278.837 330.891 279.001 331.05 279.216C331.209 279.428 331.328 279.684 331.407 279.984C331.487 280.281 331.526 280.611 331.526 280.976ZM330.463 281.069V280.976C330.463 280.755 330.443 280.551 330.402 280.363C330.36 280.172 330.296 280.004 330.207 279.86C330.119 279.716 330.006 279.604 329.868 279.525C329.733 279.443 329.569 279.401 329.378 279.401C329.19 279.401 329.028 279.434 328.893 279.498C328.758 279.56 328.645 279.647 328.553 279.759C328.462 279.87 328.392 280.001 328.342 280.151C328.292 280.298 328.256 280.458 328.236 280.632V281.488C328.271 281.699 328.331 281.893 328.417 282.07C328.502 282.246 328.623 282.387 328.778 282.493C328.937 282.596 329.14 282.648 329.387 282.648C329.578 282.648 329.741 282.606 329.877 282.524C330.012 282.442 330.122 282.329 330.207 282.184C330.296 282.037 330.36 281.868 330.402 281.677C330.443 281.486 330.463 281.283 330.463 281.069ZM334.835 283.494C334.483 283.494 334.164 283.437 333.878 283.322C333.596 283.205 333.355 283.042 333.155 282.833C332.958 282.624 332.807 282.379 332.701 282.096C332.595 281.814 332.542 281.51 332.542 281.183V281.007C332.542 280.633 332.596 280.295 332.705 279.992C332.814 279.69 332.965 279.431 333.159 279.216C333.353 278.999 333.583 278.832 333.847 278.718C334.112 278.603 334.399 278.546 334.708 278.546C335.049 278.546 335.347 278.603 335.603 278.718C335.859 278.832 336.07 278.994 336.238 279.203C336.409 279.409 336.535 279.654 336.617 279.939C336.703 280.225 336.745 280.539 336.745 280.883V281.338H333.058V280.575H335.696V280.491C335.69 280.3 335.651 280.12 335.581 279.953C335.513 279.785 335.409 279.65 335.268 279.547C335.127 279.444 334.938 279.393 334.703 279.393C334.527 279.393 334.369 279.431 334.231 279.507C334.096 279.581 333.983 279.688 333.892 279.829C333.8 279.97 333.73 280.141 333.68 280.341C333.633 280.538 333.609 280.76 333.609 281.007V281.183C333.609 281.392 333.637 281.586 333.693 281.765C333.752 281.942 333.837 282.096 333.949 282.229C334.061 282.361 334.196 282.465 334.355 282.542C334.513 282.615 334.694 282.652 334.897 282.652C335.153 282.652 335.381 282.601 335.581 282.498C335.781 282.395 335.954 282.249 336.101 282.061L336.661 282.604C336.559 282.753 336.425 282.898 336.26 283.036C336.095 283.171 335.894 283.281 335.656 283.367C335.421 283.452 335.147 283.494 334.835 283.494ZM338.943 279.542V283.406H337.88V278.634H338.894L338.943 279.542ZM340.403 278.603L340.394 279.591C340.329 279.579 340.259 279.57 340.182 279.565C340.109 279.559 340.035 279.556 339.962 279.556C339.78 279.556 339.619 279.582 339.481 279.635C339.343 279.685 339.227 279.759 339.133 279.856C339.042 279.95 338.971 280.064 338.921 280.2C338.871 280.335 338.842 280.486 338.833 280.654L338.59 280.672C338.59 280.372 338.62 280.094 338.678 279.838C338.737 279.582 338.825 279.357 338.943 279.163C339.064 278.969 339.214 278.818 339.393 278.709C339.575 278.6 339.785 278.546 340.024 278.546C340.088 278.546 340.157 278.552 340.231 278.563C340.307 278.575 340.365 278.588 340.403 278.603ZM343.902 282.449V280.173C343.902 280.003 343.871 279.856 343.809 279.732C343.747 279.609 343.653 279.513 343.527 279.445C343.403 279.378 343.248 279.344 343.059 279.344C342.886 279.344 342.736 279.373 342.609 279.432C342.483 279.491 342.385 279.57 342.314 279.67C342.243 279.77 342.208 279.884 342.208 280.01H341.15C341.15 279.822 341.195 279.64 341.286 279.463C341.377 279.287 341.51 279.129 341.683 278.991C341.857 278.853 342.064 278.744 342.305 278.665C342.546 278.585 342.817 278.546 343.117 278.546C343.475 278.546 343.793 278.606 344.069 278.727C344.349 278.847 344.568 279.029 344.727 279.273C344.888 279.515 344.969 279.817 344.969 280.182V282.304C344.969 282.521 344.984 282.717 345.013 282.89C345.046 283.061 345.091 283.209 345.15 283.336V283.406H344.061C344.011 283.292 343.971 283.146 343.941 282.97C343.915 282.79 343.902 282.617 343.902 282.449ZM344.056 280.504L344.065 281.161H343.302C343.105 281.161 342.931 281.18 342.781 281.219C342.632 281.254 342.507 281.307 342.407 281.377C342.307 281.448 342.232 281.533 342.182 281.633C342.132 281.733 342.107 281.846 342.107 281.973C342.107 282.099 342.136 282.215 342.195 282.321C342.254 282.424 342.339 282.505 342.451 282.564C342.565 282.623 342.704 282.652 342.865 282.652C343.083 282.652 343.273 282.608 343.434 282.52C343.599 282.429 343.728 282.318 343.822 282.189C343.916 282.057 343.966 281.932 343.972 281.814L344.316 282.286C344.281 282.406 344.221 282.536 344.136 282.674C344.05 282.812 343.939 282.945 343.8 283.071C343.665 283.195 343.502 283.296 343.311 283.375C343.123 283.455 342.905 283.494 342.658 283.494C342.346 283.494 342.068 283.433 341.824 283.309C341.58 283.183 341.389 283.014 341.251 282.802C341.113 282.587 341.044 282.345 341.044 282.074C341.044 281.821 341.091 281.598 341.185 281.404C341.282 281.207 341.423 281.042 341.608 280.91C341.796 280.777 342.026 280.678 342.296 280.61C342.567 280.539 342.876 280.504 343.223 280.504H344.056ZM348.569 278.634V279.41H345.879V278.634H348.569ZM346.655 277.465H347.718V282.087C347.718 282.234 347.739 282.348 347.78 282.427C347.824 282.504 347.884 282.555 347.961 282.581C348.037 282.608 348.127 282.621 348.23 282.621C348.303 282.621 348.374 282.617 348.442 282.608C348.509 282.599 348.564 282.59 348.605 282.581L348.609 283.393C348.521 283.419 348.418 283.443 348.3 283.464C348.186 283.484 348.053 283.494 347.903 283.494C347.659 283.494 347.443 283.452 347.255 283.367C347.067 283.278 346.92 283.136 346.814 282.939C346.708 282.742 346.655 282.48 346.655 282.154V277.465ZM349.382 281.073V280.972C349.382 280.628 349.432 280.308 349.532 280.014C349.632 279.717 349.776 279.46 349.964 279.243C350.156 279.022 350.388 278.851 350.661 278.731C350.938 278.607 351.249 278.546 351.596 278.546C351.946 278.546 352.258 278.607 352.531 278.731C352.808 278.851 353.042 279.022 353.233 279.243C353.424 279.46 353.569 279.717 353.669 280.014C353.769 280.308 353.819 280.628 353.819 280.972V281.073C353.819 281.417 353.769 281.736 353.669 282.03C353.569 282.324 353.424 282.581 353.233 282.802C353.042 283.02 352.809 283.19 352.536 283.314C352.262 283.434 351.952 283.494 351.605 283.494C351.255 283.494 350.942 283.434 350.666 283.314C350.392 283.19 350.16 283.02 349.969 282.802C349.778 282.581 349.632 282.324 349.532 282.03C349.432 281.736 349.382 281.417 349.382 281.073ZM350.445 280.972V281.073C350.445 281.288 350.467 281.491 350.511 281.682C350.555 281.873 350.625 282.04 350.719 282.184C350.813 282.329 350.933 282.442 351.08 282.524C351.227 282.606 351.402 282.648 351.605 282.648C351.802 282.648 351.973 282.606 352.117 282.524C352.264 282.442 352.384 282.329 352.479 282.184C352.573 282.04 352.642 281.873 352.686 281.682C352.733 281.491 352.756 281.288 352.756 281.073V280.972C352.756 280.76 352.733 280.56 352.686 280.372C352.642 280.181 352.571 280.011 352.474 279.864C352.38 279.717 352.259 279.603 352.112 279.52C351.968 279.435 351.796 279.393 351.596 279.393C351.396 279.393 351.223 279.435 351.076 279.52C350.932 279.603 350.813 279.717 350.719 279.864C350.625 280.011 350.555 280.181 350.511 280.372C350.467 280.56 350.445 280.76 350.445 280.972ZM356.079 279.542V283.406H355.016V278.634H356.03L356.079 279.542ZM357.539 278.603L357.53 279.591C357.465 279.579 357.395 279.57 357.318 279.565C357.245 279.559 357.171 279.556 357.098 279.556C356.915 279.556 356.755 279.582 356.617 279.635C356.479 279.685 356.363 279.759 356.268 279.856C356.177 279.95 356.107 280.064 356.057 280.2C356.007 280.335 355.977 280.486 355.969 280.654L355.726 280.672C355.726 280.372 355.755 280.094 355.814 279.838C355.873 279.582 355.961 279.357 356.079 279.163C356.199 278.969 356.349 278.818 356.529 278.709C356.711 278.6 356.921 278.546 357.159 278.546C357.224 278.546 357.293 278.552 357.367 278.563C357.443 278.575 357.501 278.588 357.539 278.603Z" fill="#4B46B9"></path></g></g><defs><filter id="filter0_d_81_1057" x="287.246" y="215.782" width="54.1568" height="23.5625" filterUnits="userSpaceOnUse" color-interpolation-filters="sRGB"><feFlood flood-opacity="0" result="BackgroundImageFix"></feFlood><feColorMatrix in="SourceAlpha" type="matrix" values="0 0 0 0 0 0 0 0 0 0 0 0 0 0 0 0 0 0 127 0" result="hardAlpha"></feColorMatrix><feOffset dy="1.50551"></feOffset><feGaussianBlur stdDeviation="0.752757"></feGaussianBlur><feComposite in2="hardAlpha" operator="out"></feComposite><feColorMatrix type="matrix" values="0 0 0 0 0 0 0 0 0 0 0 0 0 0 0 0 0 0 0.16 0"></feColorMatrix><feBlend mode="normal" in2="BackgroundImageFix" result="effect1_dropShadow_81_1057"></feBlend><feBlend mode="normal" in="SourceGraphic" in2="effect1_dropShadow_81_1057" result="shape"></feBlend></filter><filter id="filter1_d_81_1057" x="287.246" y="242.706" width="56.4148" height="23.5625" filterUnits="userSpaceOnUse" color-interpolation-filters="sRGB"><feFlood flood-opacity="0" result="BackgroundImageFix"></feFlood><feColorMatrix in="SourceAlpha" type="matrix" values="0 0 0 0 0 0 0 0 0 0 0 0 0 0 0 0 0 0 127 0" result="hardAlpha"></feColorMatrix><feOffset dy="1.50551"></feOffset><feGaussianBlur stdDeviation="0.752757"></feGaussianBlur><feComposite in2="hardAlpha" operator="out"></feComposite><feColorMatrix type="matrix" values="0 0 0 0 0 0 0 0 0 0 0 0 0 0 0 0 0 0 0.16 0"></feColorMatrix><feBlend mode="normal" in2="BackgroundImageFix" result="effect1_dropShadow_81_1057"></feBlend><feBlend mode="normal" in="SourceGraphic" in2="effect1_dropShadow_81_1057" result="shape"></feBlend></filter><filter id="filter2_d_81_1057" x="287.246" y="269.63" width="81.2486" height="23.5625" filterUnits="userSpaceOnUse" color-interpolation-filters="sRGB"><feFlood flood-opacity="0" result="BackgroundImageFix"></feFlood><feColorMatrix in="SourceAlpha" type="matrix" values="0 0 0 0 0 0 0 0 0 0 0 0 0 0 0 0 0 0 127 0" result="hardAlpha"></feColorMatrix><feOffset dy="1.50551"></feOffset><feGaussianBlur stdDeviation="0.752757"></feGaussianBlur><feComposite in2="hardAlpha" operator="out"></feComposite><feColorMatrix type="matrix" values="0 0 0 0 0 0 0 0 0 0 0 0 0 0 0 0 0 0 0.16 0"></feColorMatrix><feBlend mode="normal" in2="BackgroundImageFix" result="effect1_dropShadow_81_1057"></feBlend><feBlend mode="normal" in="SourceGraphic" in2="effect1_dropShadow_81_1057" result="shape"></feBlend></filter><linearGradient id="paint0_linear_81_1057" x1="71.4302" y1="116.464" x2="68.241" y2="116.464" gradientUnits="userSpaceOnUse"><stop stop-color="#00E39B"></stop><stop offset="1" stop-color="#009C6D"></stop></linearGradient><linearGradient id="paint1_linear_81_1057" x1="58.9857" y1="112.939" x2="70.7998" y2="122.359" gradientUnits="userSpaceOnUse"><stop stop-color="#7D99FA"></stop><stop offset="1" stop-color="#2F55D2"></stop></linearGradient><clipPath id="clip0_81_1057"><rect width="366.98" height="300.016" fill="white" transform="translate(0.510254 0.491455)"></rect></clipPath><clipPath id="ImageTwo"><rect x="51.3887" y="102.582" width="275.421" height="194.362" rx="12.8367" fill="white"></rect></clipPath><clipPath id="clip2_81_1057"><rect width="9.09214" height="9.09214" fill="white" transform="translate(214.759 201.703)"></rect></clipPath><clipPath id="clip3_81_1057"><rect width="5.69269" height="5.69269" fill="white" transform="translate(271.498 177.154)"></rect></clipPath></defs></svg>