<svg width="148" height="149" viewBox="0 0 148 149" fill="none" class="xl:w-full lg:h-full xs:w-24 xs:h-24" xmlns="http://www.w3.org/2000/svg"><rect width="148" height="148.851" rx="14.4598" fill="white"></rect><path d="M104.61 105.171H102.802C104.104 105.171 105.152 104.123 105.152 102.821V23.379C105.152 22.0778 104.104 21.0297 102.802 21.0297H104.61C106.887 21.0297 108.73 22.873 108.73 25.15V101.087C108.694 103.327 106.851 105.171 104.61 105.171Z" fill="#375BD7"></path><path d="M38.3593 21.0297H102.658C104.935 21.0297 106.778 22.873 106.778 25.15V101.087C106.778 103.364 104.935 105.207 102.658 105.207H38.3593C36.0823 105.207 34.239 103.364 34.239 101.087V25.1138C34.2752 22.873 36.1185 21.0297 38.3593 21.0297Z" fill="white"></path><path d="M38.3593 21.0297H98.1761C100.453 21.0297 102.296 22.873 102.296 25.15V101.087C102.296 103.364 100.453 105.207 98.1761 105.207H38.3593C36.0823 105.207 34.239 103.364 34.239 101.087V25.1138C34.2752 22.873 36.1185 21.0297 38.3593 21.0297Z" fill="#7898FF"></path><path d="M102.008 35.7397H114.911C116.609 35.7397 117.983 37.1132 117.983 38.8119V54.6426C117.983 56.3413 116.609 57.7147 114.911 57.7147H102.008V35.7397Z" fill="url(#paint0_linear_264_4929)"></path><path d="M38.3593 21.0297H99.8026C102.08 21.0297 103.923 22.873 103.923 25.15V101.087C103.923 103.364 102.08 105.207 99.8026 105.207H38.3593C36.0823 105.207 34.239 103.364 34.239 101.087V25.1138C34.2752 22.873 36.1185 21.0297 38.3593 21.0297Z" fill="url(#paint1_linear_264_4929)"></path><path d="M72.5071 87.4886C81.4182 87.4886 88.7954 84.2747 93.6161 78.3583L86.0198 71.3463C82.5868 75.3636 78.2774 77.4088 73.1644 77.4088C63.596 77.4088 56.8031 70.6889 56.8031 61.0474C56.8031 51.4059 63.596 44.6861 73.1644 44.6861C78.2774 44.6861 82.5868 46.7312 86.0198 50.6755L93.6161 43.6635C88.7954 37.8201 81.4182 34.6063 72.5801 34.6063C56.657 34.6063 44.8242 45.6356 44.8242 61.0474C44.8242 76.4592 56.657 87.4886 72.5071 87.4886Z" fill="white"></path><path d="M32.1822 129.001C34.1275 129.001 35.7381 128.3 36.7905 127.008L35.1321 125.477C34.3827 126.354 33.4419 126.801 32.3257 126.801C30.2368 126.801 28.7538 125.334 28.7538 123.229C28.7538 121.124 30.2368 119.657 32.3257 119.657C33.4419 119.657 34.3827 120.103 35.1321 120.965L36.7905 119.434C35.7381 118.158 34.1275 117.456 32.1981 117.456C28.7219 117.456 26.1387 119.864 26.1387 123.229C26.1387 126.593 28.7219 129.001 32.1822 129.001ZM46.6565 128.81H49.3673L44.3763 117.648H41.825L36.8499 128.81H39.4969L40.4855 126.418H45.6679L46.6565 128.81ZM41.3147 124.457L43.0847 120.183L44.8547 124.457H41.3147ZM54.1929 129.001C57.3821 129.001 58.9288 127.407 58.9288 125.541C58.9288 121.443 52.4389 122.862 52.4389 120.805C52.4389 120.103 53.0289 119.529 54.5597 119.529C55.5483 119.529 56.6167 119.816 57.6531 120.406L58.4504 118.445C57.4139 117.791 55.9788 117.456 54.5756 117.456C51.4024 117.456 49.8716 119.035 49.8716 120.933C49.8716 125.079 56.3615 123.643 56.3615 125.732C56.3615 126.418 55.7396 126.928 54.2089 126.928C52.8694 126.928 51.4662 126.45 50.5254 125.764L49.6484 127.71C50.637 128.475 52.4229 129.001 54.1929 129.001ZM68.3479 117.648V122.049H63.2771V117.648H60.6939V128.81H63.2771V124.233H68.3479V128.81H70.9311V117.648H68.3479ZM81.7681 123.006C82.677 122.527 83.251 121.666 83.251 120.55C83.251 118.812 81.8159 117.648 79.0254 117.648H73.572V128.81H79.3443C82.2783 128.81 83.8091 127.694 83.8091 125.764C83.8091 124.361 83.0119 123.404 81.7681 123.006ZM78.7065 119.593C79.9662 119.593 80.6519 120.024 80.6519 120.901C80.6519 121.778 79.9662 122.224 78.7065 122.224H76.1392V119.593H78.7065ZM79.153 126.864H76.1392V124.106H79.153C80.4924 124.106 81.21 124.552 81.21 125.493C81.21 126.45 80.4924 126.864 79.153 126.864ZM91.1705 129.001C94.6785 129.001 97.2777 126.561 97.2777 123.229C97.2777 119.896 94.6785 117.456 91.1705 117.456C87.6465 117.456 85.0632 119.912 85.0632 123.229C85.0632 126.546 87.6465 129.001 91.1705 129.001ZM91.1705 126.801C89.1773 126.801 87.6784 125.35 87.6784 123.229C87.6784 121.108 89.1773 119.657 91.1705 119.657C93.1637 119.657 94.6626 121.108 94.6626 123.229C94.6626 125.35 93.1637 126.801 91.1705 126.801ZM104.625 129.001C108.133 129.001 110.732 126.561 110.732 123.229C110.732 119.896 108.133 117.456 104.625 117.456C101.101 117.456 98.5175 119.912 98.5175 123.229C98.5175 126.546 101.101 129.001 104.625 129.001ZM104.625 126.801C102.631 126.801 101.133 125.35 101.133 123.229C101.133 121.108 102.631 119.657 104.625 119.657C106.618 119.657 108.117 121.108 108.117 123.229C108.117 125.35 106.618 126.801 104.625 126.801ZM120.311 128.81H123.325L118.43 122.623L123.054 117.648H120.184L115.241 122.862V117.648H112.673V128.81H115.241V125.987L116.739 124.425L120.311 128.81Z" fill="#4863D4"></path><defs><linearGradient id="paint0_linear_264_4929" x1="121.059" y1="46.735" x2="98.6346" y2="46.735" gradientUnits="userSpaceOnUse"><stop stop-color="#00E39B"></stop><stop offset="1" stop-color="#009C6D"></stop></linearGradient><linearGradient id="paint1_linear_264_4929" x1="33.5574" y1="21.8939" x2="116.847" y2="88.0698" gradientUnits="userSpaceOnUse"><stop stop-color="#7D99FA"></stop><stop offset="1" stop-color="#2F55D2"></stop></linearGradient></defs></svg>